<mxfile modified="2022-11-02T03:44:28.651Z" host="app.diagrams.net" agent="5.0 (Windows NT 10.0; Win64; x64) AppleWebKit/537.36 (KHTML, like Gecko) Chrome/107.0.0.0 Safari/537.36" etag="cixRCTbABkPGZoGZFedt" version="20.5.1" type="github" pages="6">
  <diagram id="Ht1M8jgEwFfnCIfOTk4-" name="整体">
    <mxGraphModel dx="1697" dy="949" grid="0" gridSize="10" guides="1" tooltips="1" connect="1" arrows="1" fold="1" page="1" pageScale="1" pageWidth="1169" pageHeight="827" math="0" shadow="0">
      <root>
        <mxCell id="0" />
        <mxCell id="1" parent="0" />
        <mxCell id="BzYXWOELMdb0Y6V95ySH-1" style="edgeStyle=orthogonalEdgeStyle;rounded=0;orthogonalLoop=1;jettySize=auto;html=1;entryX=0.5;entryY=0;entryDx=0;entryDy=0;" parent="1" source="80s8uKXGqktHQ2wDigPO-4" target="80s8uKXGqktHQ2wDigPO-13" edge="1">
          <mxGeometry relative="1" as="geometry" />
        </mxCell>
        <mxCell id="BzYXWOELMdb0Y6V95ySH-86" value="" style="edgeStyle=orthogonalEdgeStyle;rounded=1;orthogonalLoop=1;jettySize=auto;html=1;" parent="1" source="80s8uKXGqktHQ2wDigPO-13" edge="1">
          <mxGeometry relative="1" as="geometry">
            <mxPoint x="391" y="390" as="targetPoint" />
            <Array as="points">
              <mxPoint x="391" y="340" />
            </Array>
          </mxGeometry>
        </mxCell>
        <mxCell id="BzYXWOELMdb0Y6V95ySH-89" value="" style="group" parent="1" vertex="1" connectable="0">
          <mxGeometry x="640" y="480" width="120" height="120" as="geometry" />
        </mxCell>
        <mxCell id="BzYXWOELMdb0Y6V95ySH-3" value="广告数据" style="fillColor=none;strokeColor=#5A6C86;dashed=1;verticalAlign=top;fontStyle=0;fontColor=#5A6C86;labelBackgroundColor=#ffffff;" parent="BzYXWOELMdb0Y6V95ySH-89" vertex="1">
          <mxGeometry width="120" height="120" as="geometry" />
        </mxCell>
        <mxCell id="80s8uKXGqktHQ2wDigPO-20" value="" style="outlineConnect=0;fontColor=#232F3E;gradientColor=#4D72F3;gradientDirection=north;fillColor=#3334B9;strokeColor=#ffffff;dashed=0;verticalLabelPosition=bottom;verticalAlign=top;align=center;html=1;fontSize=12;fontStyle=0;aspect=fixed;shape=mxgraph.aws4.resourceIcon;resIcon=mxgraph.aws4.timestream;labelBackgroundColor=#ffffff;container=0;" parent="BzYXWOELMdb0Y6V95ySH-89" vertex="1">
          <mxGeometry x="26" y="28" width="70" height="70" as="geometry" />
        </mxCell>
        <mxCell id="80s8uKXGqktHQ2wDigPO-18" value="" style="outlineConnect=0;fontColor=#232F3E;gradientDirection=north;strokeColor=#ffffff;dashed=0;verticalLabelPosition=bottom;verticalAlign=top;align=center;html=1;fontSize=12;fontStyle=0;aspect=fixed;shape=mxgraph.aws4.resourceIcon;resIcon=mxgraph.aws4.compute;labelBackgroundColor=#ffffff;fillColor=#CC0066;container=0;" parent="1" vertex="1">
          <mxGeometry x="265.77" y="506.77230769230766" width="70" height="70" as="geometry" />
        </mxCell>
        <mxCell id="BzYXWOELMdb0Y6V95ySH-101" style="edgeStyle=orthogonalEdgeStyle;shape=flexArrow;rounded=1;orthogonalLoop=1;jettySize=auto;html=1;width=5;endWidth=8.965517241379311;endSize=4.793103448275862;" parent="1" source="BzYXWOELMdb0Y6V95ySH-6" edge="1">
          <mxGeometry relative="1" as="geometry">
            <mxPoint x="390" y="440" as="targetPoint" />
          </mxGeometry>
        </mxCell>
        <mxCell id="BzYXWOELMdb0Y6V95ySH-6" value="广告算法" style="fillColor=none;strokeColor=#5A6C86;dashed=1;verticalAlign=top;fontStyle=0;fontColor=#5A6C86;labelBackgroundColor=#ffffff;container=0;" parent="1" vertex="1">
          <mxGeometry x="240.76999999999998" y="480" width="120" height="120" as="geometry" />
        </mxCell>
        <mxCell id="BzYXWOELMdb0Y6V95ySH-110" style="edgeStyle=orthogonalEdgeStyle;shape=flexArrow;rounded=1;orthogonalLoop=1;jettySize=auto;html=1;entryX=0;entryY=0.25;entryDx=0;entryDy=0;width=5;endWidth=9.655172413793103;endSize=5.855172413793103;" parent="1" source="BzYXWOELMdb0Y6V95ySH-75" target="BzYXWOELMdb0Y6V95ySH-3" edge="1">
          <mxGeometry relative="1" as="geometry" />
        </mxCell>
        <mxCell id="ggAST1eTaiU3o_mUd9bN-1" style="edgeStyle=orthogonalEdgeStyle;shape=flexArrow;rounded=0;orthogonalLoop=1;jettySize=auto;html=1;exitX=1;exitY=0.75;exitDx=0;exitDy=0;width=5.333333333333333;endSize=5.4433333333333325;endWidth=11.333333333333334;" parent="1" target="BzYXWOELMdb0Y6V95ySH-75" edge="1">
          <mxGeometry relative="1" as="geometry">
            <mxPoint x="481" y="319" as="targetPoint" />
            <mxPoint x="360.19999999999993" y="319" as="sourcePoint" />
            <Array as="points">
              <mxPoint x="460" y="319" />
              <mxPoint x="460" y="319" />
            </Array>
          </mxGeometry>
        </mxCell>
        <mxCell id="80s8uKXGqktHQ2wDigPO-13" value="广告引擎" style="fillColor=none;strokeColor=#5A6C86;dashed=1;verticalAlign=top;fontStyle=0;fontColor=#5A6C86;container=0;" parent="1" vertex="1">
          <mxGeometry x="239.2" y="240" width="120" height="120" as="geometry" />
        </mxCell>
        <mxCell id="80s8uKXGqktHQ2wDigPO-19" value="" style="outlineConnect=0;fontColor=#232F3E;gradientColor=#F78E04;gradientDirection=north;fillColor=#D05C17;strokeColor=#ffffff;dashed=0;verticalLabelPosition=bottom;verticalAlign=top;align=center;html=1;fontSize=12;fontStyle=0;aspect=fixed;shape=mxgraph.aws4.resourceIcon;resIcon=mxgraph.aws4.eks;container=0;" parent="1" vertex="1">
          <mxGeometry x="264.2" y="265" width="70" height="70" as="geometry" />
        </mxCell>
        <mxCell id="80s8uKXGqktHQ2wDigPO-21" value="" style="outlineConnect=0;fontColor=#232F3E;gradientDirection=north;strokeColor=#ffffff;dashed=0;verticalLabelPosition=bottom;verticalAlign=top;align=center;html=1;fontSize=12;fontStyle=0;aspect=fixed;shape=mxgraph.aws4.resourceIcon;resIcon=mxgraph.aws4.support;labelBackgroundColor=#ffffff;fillColor=#00994D;container=0;" parent="1" vertex="1">
          <mxGeometry x="664" y="264" width="70" height="70" as="geometry" />
        </mxCell>
        <mxCell id="BzYXWOELMdb0Y6V95ySH-106" style="edgeStyle=orthogonalEdgeStyle;shape=flexArrow;rounded=1;orthogonalLoop=1;jettySize=auto;html=1;width=5;endWidth=7.586206896551724;endSize=4.724137931034483;" parent="1" edge="1">
          <mxGeometry relative="1" as="geometry">
            <mxPoint x="360" y="260" as="targetPoint" />
            <mxPoint x="480" y="259.9999999999999" as="sourcePoint" />
          </mxGeometry>
        </mxCell>
        <mxCell id="4Cr9Zc9VG4RNHQCO2cu2-3" style="edgeStyle=orthogonalEdgeStyle;shape=flexArrow;rounded=0;orthogonalLoop=1;jettySize=auto;html=1;width=5.2;endSize=4.2;endWidth=7.12;" parent="1" edge="1">
          <mxGeometry relative="1" as="geometry">
            <mxPoint x="666" y="476" as="targetPoint" />
            <mxPoint x="666" y="365" as="sourcePoint" />
          </mxGeometry>
        </mxCell>
        <mxCell id="BzYXWOELMdb0Y6V95ySH-7" value="广告平台" style="fillColor=none;strokeColor=#5A6C86;dashed=1;verticalAlign=top;fontStyle=0;fontColor=#5A6C86;labelBackgroundColor=#ffffff;container=0;" parent="1" vertex="1">
          <mxGeometry x="639" y="239" width="120" height="120" as="geometry" />
        </mxCell>
        <mxCell id="80s8uKXGqktHQ2wDigPO-1" value="" style="outlineConnect=0;fontColor=#232F3E;gradientColor=#F54749;gradientDirection=north;fillColor=#C7131F;strokeColor=#ffffff;dashed=0;verticalLabelPosition=bottom;verticalAlign=top;align=center;html=1;fontSize=12;fontStyle=0;aspect=fixed;shape=mxgraph.aws4.resourceIcon;resIcon=mxgraph.aws4.mobile;container=0;" parent="1" vertex="1">
          <mxGeometry x="475" y="140" width="70" height="70" as="geometry" />
        </mxCell>
        <mxCell id="BzYXWOELMdb0Y6V95ySH-107" style="edgeStyle=orthogonalEdgeStyle;rounded=1;orthogonalLoop=1;jettySize=auto;html=1;entryX=1;entryY=0.25;entryDx=0;entryDy=0;" parent="1" source="80s8uKXGqktHQ2wDigPO-4" target="BzYXWOELMdb0Y6V95ySH-3" edge="1">
          <mxGeometry relative="1" as="geometry" />
        </mxCell>
        <mxCell id="80s8uKXGqktHQ2wDigPO-4" value="广告前端" style="fillColor=none;strokeColor=#5A6C86;dashed=1;verticalAlign=top;fontStyle=0;fontColor=#5A6C86;container=0;" parent="1" vertex="1">
          <mxGeometry x="450" y="110" width="120" height="120" as="geometry" />
        </mxCell>
        <mxCell id="BzYXWOELMdb0Y6V95ySH-102" style="edgeStyle=orthogonalEdgeStyle;shape=flexArrow;rounded=1;orthogonalLoop=1;jettySize=auto;html=1;entryX=1.007;entryY=0.813;entryDx=0;entryDy=0;entryPerimeter=0;exitX=0;exitY=0.813;exitDx=0;exitDy=0;exitPerimeter=0;width=5;endWidth=8.275862068965518;endSize=4.186206896551725;" parent="1" source="BzYXWOELMdb0Y6V95ySH-3" target="BzYXWOELMdb0Y6V95ySH-6" edge="1">
          <mxGeometry relative="1" as="geometry">
            <mxPoint x="640" y="570" as="sourcePoint" />
          </mxGeometry>
        </mxCell>
        <mxCell id="BzYXWOELMdb0Y6V95ySH-108" style="edgeStyle=orthogonalEdgeStyle;shape=flexArrow;rounded=1;orthogonalLoop=1;jettySize=auto;html=1;exitX=0.008;exitY=0.175;exitDx=0;exitDy=0;exitPerimeter=0;width=5;endWidth=10.344827586206897;endSize=4.0344827586206895;" parent="1" source="BzYXWOELMdb0Y6V95ySH-7" edge="1">
          <mxGeometry relative="1" as="geometry">
            <mxPoint x="520" y="260.0000000000001" as="targetPoint" />
            <mxPoint x="631.9999999999998" y="260" as="sourcePoint" />
          </mxGeometry>
        </mxCell>
        <mxCell id="BzYXWOELMdb0Y6V95ySH-75" value="" style="outlineConnect=0;fontColor=#232F3E;gradientColor=none;fillColor=#116D5B;strokeColor=none;dashed=0;verticalLabelPosition=bottom;verticalAlign=top;align=center;html=1;fontSize=12;fontStyle=0;aspect=fixed;shape=mxgraph.aws4.agent2;labelBackgroundColor=#ffffff;" parent="1" vertex="1">
          <mxGeometry x="489" y="294" width="40" height="40" as="geometry" />
        </mxCell>
        <mxCell id="BzYXWOELMdb0Y6V95ySH-114" value="" style="outlineConnect=0;fontColor=#232F3E;gradientColor=none;strokeColor=#ffffff;fillColor=#232F3E;dashed=0;verticalLabelPosition=middle;verticalAlign=bottom;align=center;html=1;whiteSpace=wrap;fontSize=10;fontStyle=1;spacing=3;shape=mxgraph.aws4.productIcon;prIcon=mxgraph.aws4.elastic_file_system;labelBackgroundColor=#ffffff;" parent="1" vertex="1">
          <mxGeometry x="480" y="240" width="40" height="41" as="geometry" />
        </mxCell>
        <mxCell id="zntDD8Vcu25GKzzXNYuP-1" value="投放、计费" style="text;html=1;align=center;verticalAlign=middle;resizable=0;points=[];autosize=1;" parent="1" vertex="1">
          <mxGeometry x="320" y="150" width="80" height="20" as="geometry" />
        </mxCell>
        <mxCell id="zntDD8Vcu25GKzzXNYuP-2" value="计费、竞价、debug" style="text;html=1;align=center;verticalAlign=middle;resizable=0;points=[];autosize=1;" parent="1" vertex="1">
          <mxGeometry x="357" y="291" width="120" height="20" as="geometry" />
        </mxCell>
        <mxCell id="zntDD8Vcu25GKzzXNYuP-5" value="策略、订单" style="text;html=1;align=center;verticalAlign=middle;resizable=0;points=[];autosize=1;" parent="1" vertex="1">
          <mxGeometry x="550" y="240" width="80" height="20" as="geometry" />
        </mxCell>
        <mxCell id="zntDD8Vcu25GKzzXNYuP-6" value="特征&amp;nbsp; &amp;nbsp;模型" style="text;html=1;align=center;verticalAlign=middle;resizable=0;points=[];autosize=1;" parent="1" vertex="1">
          <mxGeometry x="355.77" y="486.77" width="70" height="20" as="geometry" />
        </mxCell>
        <mxCell id="zntDD8Vcu25GKzzXNYuP-7" value="特征&amp;nbsp; 排序" style="text;html=1;align=center;verticalAlign=middle;resizable=0;points=[];autosize=1;" parent="1" vertex="1">
          <mxGeometry x="355.77" y="350" width="70" height="20" as="geometry" />
        </mxCell>
        <mxCell id="zntDD8Vcu25GKzzXNYuP-9" value="" style="group" parent="1" vertex="1" connectable="0">
          <mxGeometry x="337" y="388" width="104.19999999999999" height="51" as="geometry" />
        </mxCell>
        <mxCell id="BzYXWOELMdb0Y6V95ySH-100" value="" style="outlineConnect=0;fontColor=#232F3E;gradientColor=#4D72F3;gradientDirection=north;fillColor=#3334B9;strokeColor=#ffffff;dashed=0;verticalLabelPosition=bottom;verticalAlign=top;align=center;html=1;fontSize=12;fontStyle=0;aspect=fixed;shape=mxgraph.aws4.resourceIcon;resIcon=mxgraph.aws4.database;" parent="zntDD8Vcu25GKzzXNYuP-9" vertex="1">
          <mxGeometry width="50" height="50" as="geometry" />
        </mxCell>
        <mxCell id="BzYXWOELMdb0Y6V95ySH-103" value="" style="aspect=fixed;perimeter=ellipsePerimeter;html=1;align=center;shadow=0;dashed=0;fontColor=#4277BB;labelBackgroundColor=#ffffff;fontSize=12;spacingTop=3;image;image=img/lib/ibm/miscellaneous/retrieve_rank.svg;fillColor=#CC0066;gradientColor=none;" parent="zntDD8Vcu25GKzzXNYuP-9" vertex="1">
          <mxGeometry x="53.19999999999999" width="51" height="51" as="geometry" />
        </mxCell>
        <mxCell id="zntDD8Vcu25GKzzXNYuP-11" value="pingback日志" style="text;html=1;align=center;verticalAlign=middle;resizable=0;points=[];autosize=1;" parent="1" vertex="1">
          <mxGeometry x="620" y="150" width="90" height="20" as="geometry" />
        </mxCell>
        <mxCell id="zntDD8Vcu25GKzzXNYuP-12" value="订单信息" style="text;html=1;align=center;verticalAlign=middle;resizable=0;points=[];autosize=1;" parent="1" vertex="1">
          <mxGeometry x="604" y="370" width="60" height="20" as="geometry" />
        </mxCell>
        <mxCell id="zntDD8Vcu25GKzzXNYuP-13" value="投放数据" style="text;html=1;align=center;verticalAlign=middle;resizable=0;points=[];autosize=1;" parent="1" vertex="1">
          <mxGeometry x="720" y="450" width="60" height="20" as="geometry" />
        </mxCell>
        <mxCell id="zntDD8Vcu25GKzzXNYuP-15" value="库存、曝光、点击、转化" style="text;html=1;align=center;verticalAlign=middle;resizable=0;points=[];autosize=1;" parent="1" vertex="1">
          <mxGeometry x="410" y="551" width="150" height="20" as="geometry" />
        </mxCell>
        <mxCell id="38ZYLiRp07zNe-4LdflZ-5" value="" style="group" parent="1" vertex="1" connectable="0">
          <mxGeometry x="239.2" y="97" width="140" height="40" as="geometry" />
        </mxCell>
        <mxCell id="38ZYLiRp07zNe-4LdflZ-1" value="" style="endArrow=classic;html=1;" parent="38ZYLiRp07zNe-4LdflZ-5" edge="1">
          <mxGeometry width="50" height="50" relative="1" as="geometry">
            <mxPoint y="10" as="sourcePoint" />
            <mxPoint x="65.80000000000001" y="10" as="targetPoint" />
          </mxGeometry>
        </mxCell>
        <mxCell id="38ZYLiRp07zNe-4LdflZ-2" value="实时请求" style="text;html=1;align=center;verticalAlign=middle;resizable=0;points=[];autosize=1;" parent="38ZYLiRp07zNe-4LdflZ-5" vertex="1">
          <mxGeometry x="70" width="60" height="20" as="geometry" />
        </mxCell>
        <mxCell id="38ZYLiRp07zNe-4LdflZ-3" value="" style="shape=flexArrow;endArrow=classic;html=1;endWidth=7.657550535077288;endSize=5.048275862068966;width=6.8965517241379315;" parent="38ZYLiRp07zNe-4LdflZ-5" edge="1">
          <mxGeometry width="50" height="50" relative="1" as="geometry">
            <mxPoint x="0.6700000000000159" y="30" as="sourcePoint" />
            <mxPoint x="66.47000000000003" y="30" as="targetPoint" />
          </mxGeometry>
        </mxCell>
        <mxCell id="38ZYLiRp07zNe-4LdflZ-4" value="流批数据" style="text;html=1;align=center;verticalAlign=middle;resizable=0;points=[];autosize=1;" parent="38ZYLiRp07zNe-4LdflZ-5" vertex="1">
          <mxGeometry x="70" y="20" width="60" height="20" as="geometry" />
        </mxCell>
        <mxCell id="4Cr9Zc9VG4RNHQCO2cu2-4" style="edgeStyle=orthogonalEdgeStyle;shape=flexArrow;rounded=0;orthogonalLoop=1;jettySize=auto;html=1;endWidth=8.64;endSize=4.668;width=6.4;" parent="1" edge="1">
          <mxGeometry relative="1" as="geometry">
            <mxPoint x="719" y="364" as="targetPoint" />
            <mxPoint x="719" y="474" as="sourcePoint" />
          </mxGeometry>
        </mxCell>
      </root>
    </mxGraphModel>
  </diagram>
  <diagram id="yDbCPYu_Nll2axKAvYtP" name="前端边界图">
    <mxGraphModel dx="1697" dy="949" grid="0" gridSize="10" guides="1" tooltips="1" connect="1" arrows="1" fold="1" page="1" pageScale="1" pageWidth="827" pageHeight="1169" math="0" shadow="0">
      <root>
        <mxCell id="KdWkagkeOh0UaSwJcCsU-0" />
        <mxCell id="KdWkagkeOh0UaSwJcCsU-1" parent="KdWkagkeOh0UaSwJcCsU-0" />
        <mxCell id="WXtqFFxnk8P5zrN-pJCR-1" value="" style="outlineConnect=0;fontColor=#232F3E;gradientColor=#F54749;gradientDirection=north;fillColor=#C7131F;strokeColor=#ffffff;dashed=0;verticalLabelPosition=bottom;verticalAlign=top;align=center;html=1;fontSize=12;fontStyle=0;aspect=fixed;shape=mxgraph.aws4.resourceIcon;resIcon=mxgraph.aws4.mobile;" parent="KdWkagkeOh0UaSwJcCsU-1" vertex="1">
          <mxGeometry x="374" y="260" width="80" height="80" as="geometry" />
        </mxCell>
        <mxCell id="tZr6HLl3Ry7QnV1WgJkV-2" style="edgeStyle=orthogonalEdgeStyle;rounded=1;orthogonalLoop=1;jettySize=auto;html=1;" parent="KdWkagkeOh0UaSwJcCsU-1" source="WXtqFFxnk8P5zrN-pJCR-3" edge="1">
          <mxGeometry relative="1" as="geometry">
            <mxPoint x="196" y="495" as="targetPoint" />
            <Array as="points">
              <mxPoint x="196" y="410" />
              <mxPoint x="196" y="410" />
            </Array>
          </mxGeometry>
        </mxCell>
        <mxCell id="qN1W4yqXo5iNGcOwtLby-23" style="edgeStyle=none;rounded=0;orthogonalLoop=1;jettySize=auto;html=1;" parent="KdWkagkeOh0UaSwJcCsU-1" source="WXtqFFxnk8P5zrN-pJCR-3" edge="1">
          <mxGeometry relative="1" as="geometry">
            <mxPoint x="380.31578947368416" y="501" as="targetPoint" />
          </mxGeometry>
        </mxCell>
        <mxCell id="WXtqFFxnk8P5zrN-pJCR-3" value="" style="outlineConnect=0;fontColor=#232F3E;gradientColor=#F54749;gradientDirection=north;fillColor=#C7131F;strokeColor=#ffffff;dashed=0;verticalLabelPosition=bottom;verticalAlign=top;align=center;html=1;fontSize=12;fontStyle=0;aspect=fixed;shape=mxgraph.aws4.resourceIcon;resIcon=mxgraph.aws4.appsync;" parent="KdWkagkeOh0UaSwJcCsU-1" vertex="1">
          <mxGeometry x="166" y="254" width="80" height="80" as="geometry" />
        </mxCell>
        <mxCell id="WXtqFFxnk8P5zrN-pJCR-4" value="" style="edgeStyle=orthogonalEdgeStyle;rounded=0;orthogonalLoop=1;jettySize=auto;html=1;" parent="KdWkagkeOh0UaSwJcCsU-1" source="WXtqFFxnk8P5zrN-pJCR-1" target="WXtqFFxnk8P5zrN-pJCR-3" edge="1">
          <mxGeometry x="210" y="210" as="geometry">
            <Array as="points">
              <mxPoint x="370" y="300" />
              <mxPoint x="370" y="300" />
            </Array>
          </mxGeometry>
        </mxCell>
        <mxCell id="WXtqFFxnk8P5zrN-pJCR-5" value="SDK" style="text;html=1;resizable=0;autosize=1;align=center;verticalAlign=middle;points=[];fillColor=none;strokeColor=none;rounded=0;" parent="KdWkagkeOh0UaSwJcCsU-1" vertex="1">
          <mxGeometry x="394" y="240" width="40" height="20" as="geometry" />
        </mxCell>
        <mxCell id="WXtqFFxnk8P5zrN-pJCR-6" value="mixer" style="text;html=1;resizable=0;autosize=1;align=center;verticalAlign=middle;points=[];fillColor=none;strokeColor=none;rounded=0;" parent="KdWkagkeOh0UaSwJcCsU-1" vertex="1">
          <mxGeometry x="186" y="234" width="40" height="20" as="geometry" />
        </mxCell>
        <mxCell id="uf8khVCbZngQ-ly7zQHi-1" value="广告前端" style="fillColor=none;strokeColor=#5A6C86;dashed=1;verticalAlign=top;fontStyle=1;labelBackgroundColor=#ffffff;fontColor=#FF0000;" parent="KdWkagkeOh0UaSwJcCsU-1" vertex="1">
          <mxGeometry x="140" y="210" width="520" height="140" as="geometry" />
        </mxCell>
        <mxCell id="dBvJ-0v33Lm4-jKLlcKS-3" value="pingback日志" style="text;html=1;align=center;verticalAlign=middle;resizable=0;points=[];autosize=1;" parent="KdWkagkeOh0UaSwJcCsU-1" vertex="1">
          <mxGeometry x="330" y="370" width="90" height="20" as="geometry" />
        </mxCell>
        <mxCell id="dBvJ-0v33Lm4-jKLlcKS-4" value="移动端广告投放请求" style="text;html=1;align=center;verticalAlign=middle;resizable=0;points=[];autosize=1;" parent="KdWkagkeOh0UaSwJcCsU-1" vertex="1">
          <mxGeometry x="100" y="410" width="120" height="20" as="geometry" />
        </mxCell>
        <mxCell id="dBvJ-0v33Lm4-jKLlcKS-5" value="tracking请求" style="text;html=1;align=center;verticalAlign=middle;resizable=0;points=[];autosize=1;" parent="KdWkagkeOh0UaSwJcCsU-1" vertex="1">
          <mxGeometry x="246" y="410" width="80" height="20" as="geometry" />
        </mxCell>
        <mxCell id="qN1W4yqXo5iNGcOwtLby-0" value="http" style="text;html=1;align=center;verticalAlign=middle;resizable=0;points=[];autosize=1;" parent="KdWkagkeOh0UaSwJcCsU-1" vertex="1">
          <mxGeometry x="380" y="350" width="40" height="20" as="geometry" />
        </mxCell>
        <mxCell id="msfEPt7qNCTLLHoa5PI8-0" style="edgeStyle=orthogonalEdgeStyle;rounded=0;orthogonalLoop=1;jettySize=auto;html=1;entryX=0.45;entryY=-0.036;entryDx=0;entryDy=0;entryPerimeter=0;" parent="KdWkagkeOh0UaSwJcCsU-1" source="qN1W4yqXo5iNGcOwtLby-2" target="ydY4IdQ3N9qJ6Rlvzkb0-1" edge="1">
          <mxGeometry relative="1" as="geometry" />
        </mxCell>
        <mxCell id="msfEPt7qNCTLLHoa5PI8-3" style="edgeStyle=orthogonalEdgeStyle;rounded=0;orthogonalLoop=1;jettySize=auto;html=1;entryX=1;entryY=0.5;entryDx=0;entryDy=0;" parent="KdWkagkeOh0UaSwJcCsU-1" source="qN1W4yqXo5iNGcOwtLby-2" target="GKrcUpghc7v73pmIhDf1-1" edge="1">
          <mxGeometry relative="1" as="geometry" />
        </mxCell>
        <mxCell id="qN1W4yqXo5iNGcOwtLby-2" value="" style="outlineConnect=0;fontColor=#232F3E;gradientColor=none;fillColor=#232F3E;strokeColor=none;dashed=0;verticalLabelPosition=bottom;verticalAlign=top;align=center;html=1;fontSize=12;fontStyle=0;aspect=fixed;pointerEvents=1;shape=mxgraph.aws4.users;" parent="KdWkagkeOh0UaSwJcCsU-1" vertex="1">
          <mxGeometry x="570" y="266" width="68" height="68" as="geometry" />
        </mxCell>
        <mxCell id="qN1W4yqXo5iNGcOwtLby-3" value="内部系统" style="text;html=1;align=center;verticalAlign=middle;resizable=0;points=[];autosize=1;" parent="KdWkagkeOh0UaSwJcCsU-1" vertex="1">
          <mxGeometry x="570" y="234" width="60" height="20" as="geometry" />
        </mxCell>
        <mxCell id="qN1W4yqXo5iNGcOwtLby-13" value="http" style="text;html=1;align=center;verticalAlign=middle;resizable=0;points=[];autosize=1;" parent="KdWkagkeOh0UaSwJcCsU-1" vertex="1">
          <mxGeometry x="290" y="280" width="40" height="20" as="geometry" />
        </mxCell>
        <mxCell id="qN1W4yqXo5iNGcOwtLby-17" value="PCW广告投放请求" style="text;html=1;align=center;verticalAlign=middle;resizable=0;points=[];autosize=1;" parent="KdWkagkeOh0UaSwJcCsU-1" vertex="1">
          <mxGeometry x="254" y="430" width="120" height="20" as="geometry" />
        </mxCell>
        <mxCell id="qN1W4yqXo5iNGcOwtLby-18" value="http" style="text;html=1;align=center;verticalAlign=middle;resizable=0;points=[];autosize=1;" parent="KdWkagkeOh0UaSwJcCsU-1" vertex="1">
          <mxGeometry x="166" y="360" width="40" height="20" as="geometry" />
        </mxCell>
        <mxCell id="qN1W4yqXo5iNGcOwtLby-19" value="http" style="text;html=1;align=center;verticalAlign=middle;resizable=0;points=[];autosize=1;" parent="KdWkagkeOh0UaSwJcCsU-1" vertex="1">
          <mxGeometry x="236" y="360" width="40" height="20" as="geometry" />
        </mxCell>
        <mxCell id="sdUjP7qDIsSKH2jW4MRS-3" value="" style="edgeStyle=none;shape=flexArrow;rounded=0;orthogonalLoop=1;jettySize=auto;html=1;endWidth=14.222222222222221;endSize=3.78;width=6.666666666666667;" parent="KdWkagkeOh0UaSwJcCsU-1" source="sdUjP7qDIsSKH2jW4MRS-0" edge="1">
          <mxGeometry relative="1" as="geometry">
            <mxPoint x="414" y="501" as="targetPoint" />
          </mxGeometry>
        </mxCell>
        <mxCell id="sdUjP7qDIsSKH2jW4MRS-0" value="" style="outlineConnect=0;fontColor=#232F3E;gradientColor=none;fillColor=#3334B9;strokeColor=none;dashed=0;verticalLabelPosition=bottom;verticalAlign=top;align=center;html=1;fontSize=12;fontStyle=0;aspect=fixed;pointerEvents=1;shape=mxgraph.aws4.table;" parent="KdWkagkeOh0UaSwJcCsU-1" vertex="1">
          <mxGeometry x="384" y="400" width="60" height="60" as="geometry" />
        </mxCell>
        <mxCell id="sdUjP7qDIsSKH2jW4MRS-1" style="edgeStyle=orthogonalEdgeStyle;rounded=1;orthogonalLoop=1;jettySize=auto;html=1;" parent="KdWkagkeOh0UaSwJcCsU-1" source="WXtqFFxnk8P5zrN-pJCR-1" target="sdUjP7qDIsSKH2jW4MRS-0" edge="1">
          <mxGeometry relative="1" as="geometry">
            <mxPoint x="414" y="340" as="sourcePoint" />
            <mxPoint x="414" y="500" as="targetPoint" />
          </mxGeometry>
        </mxCell>
        <mxCell id="sdUjP7qDIsSKH2jW4MRS-2" value="大数据" style="text;html=1;align=center;verticalAlign=middle;resizable=0;points=[];autosize=1;" parent="KdWkagkeOh0UaSwJcCsU-1" vertex="1">
          <mxGeometry x="440" y="420" width="50" height="20" as="geometry" />
        </mxCell>
        <mxCell id="sdUjP7qDIsSKH2jW4MRS-4" value="HDFS" style="text;html=1;align=center;verticalAlign=middle;resizable=0;points=[];autosize=1;" parent="KdWkagkeOh0UaSwJcCsU-1" vertex="1">
          <mxGeometry x="414" y="460" width="50" height="20" as="geometry" />
        </mxCell>
        <mxCell id="ydY4IdQ3N9qJ6Rlvzkb0-0" value="" style="outlineConnect=0;fontColor=#232F3E;gradientDirection=north;strokeColor=#ffffff;dashed=0;verticalLabelPosition=bottom;verticalAlign=top;align=center;html=1;fontSize=12;fontStyle=0;aspect=fixed;shape=mxgraph.aws4.resourceIcon;resIcon=mxgraph.aws4.support;labelBackgroundColor=#ffffff;fillColor=#00994D;container=0;" parent="KdWkagkeOh0UaSwJcCsU-1" vertex="1">
          <mxGeometry x="575" y="525" width="70" height="70" as="geometry" />
        </mxCell>
        <mxCell id="ydY4IdQ3N9qJ6Rlvzkb0-1" value="广告平台" style="fillColor=none;strokeColor=#5A6C86;dashed=1;verticalAlign=top;fontStyle=0;fontColor=#5A6C86;labelBackgroundColor=#ffffff;container=0;" parent="KdWkagkeOh0UaSwJcCsU-1" vertex="1">
          <mxGeometry x="550" y="500" width="120" height="110" as="geometry" />
        </mxCell>
        <mxCell id="7GJntPOCLif4-sOnsEc--0" value="广告引擎" style="fillColor=none;strokeColor=#5A6C86;dashed=1;verticalAlign=top;fontStyle=0;fontColor=#5A6C86;container=0;" parent="KdWkagkeOh0UaSwJcCsU-1" vertex="1">
          <mxGeometry x="134" y="500" width="120" height="110" as="geometry" />
        </mxCell>
        <mxCell id="7GJntPOCLif4-sOnsEc--1" value="" style="outlineConnect=0;fontColor=#232F3E;gradientColor=#F78E04;gradientDirection=north;fillColor=#D05C17;strokeColor=#ffffff;dashed=0;verticalLabelPosition=bottom;verticalAlign=top;align=center;html=1;fontSize=12;fontStyle=0;aspect=fixed;shape=mxgraph.aws4.resourceIcon;resIcon=mxgraph.aws4.eks;container=0;" parent="KdWkagkeOh0UaSwJcCsU-1" vertex="1">
          <mxGeometry x="159" y="525" width="70" height="70" as="geometry" />
        </mxCell>
        <mxCell id="GKrcUpghc7v73pmIhDf1-0" value="" style="group" parent="KdWkagkeOh0UaSwJcCsU-1" vertex="1" connectable="0">
          <mxGeometry x="340" y="501" width="120" height="120" as="geometry" />
        </mxCell>
        <mxCell id="GKrcUpghc7v73pmIhDf1-1" value="广告数据" style="fillColor=none;strokeColor=#5A6C86;dashed=1;verticalAlign=top;fontStyle=0;fontColor=#5A6C86;labelBackgroundColor=#ffffff;" parent="GKrcUpghc7v73pmIhDf1-0" vertex="1">
          <mxGeometry width="120" height="110" as="geometry" />
        </mxCell>
        <mxCell id="GKrcUpghc7v73pmIhDf1-2" value="" style="outlineConnect=0;fontColor=#232F3E;gradientColor=#4D72F3;gradientDirection=north;fillColor=#3334B9;strokeColor=#ffffff;dashed=0;verticalLabelPosition=bottom;verticalAlign=top;align=center;html=1;fontSize=12;fontStyle=0;aspect=fixed;shape=mxgraph.aws4.resourceIcon;resIcon=mxgraph.aws4.timestream;labelBackgroundColor=#ffffff;container=0;" parent="GKrcUpghc7v73pmIhDf1-0" vertex="1">
          <mxGeometry x="26" y="28" width="70" height="70" as="geometry" />
        </mxCell>
        <mxCell id="msfEPt7qNCTLLHoa5PI8-1" value="http" style="text;html=1;align=center;verticalAlign=middle;resizable=0;points=[];autosize=1;" parent="KdWkagkeOh0UaSwJcCsU-1" vertex="1">
          <mxGeometry x="605" y="360" width="40" height="20" as="geometry" />
        </mxCell>
        <mxCell id="msfEPt7qNCTLLHoa5PI8-2" value="奇甄获取广告主、素材生产、&lt;br&gt;用户登录数据" style="text;html=1;align=center;verticalAlign=middle;resizable=0;points=[];autosize=1;" parent="KdWkagkeOh0UaSwJcCsU-1" vertex="1">
          <mxGeometry x="600" y="420" width="170" height="30" as="geometry" />
        </mxCell>
        <mxCell id="msfEPt7qNCTLLHoa5PI8-4" value="apollo" style="text;html=1;align=center;verticalAlign=middle;resizable=0;points=[];autosize=1;" parent="KdWkagkeOh0UaSwJcCsU-1" vertex="1">
          <mxGeometry x="510" y="390" width="50" height="20" as="geometry" />
        </mxCell>
        <mxCell id="msfEPt7qNCTLLHoa5PI8-5" value="http&lt;br&gt;" style="text;html=1;align=center;verticalAlign=middle;resizable=0;points=[];autosize=1;" parent="KdWkagkeOh0UaSwJcCsU-1" vertex="1">
          <mxGeometry x="510" y="350" width="40" height="20" as="geometry" />
        </mxCell>
        <mxCell id="msfEPt7qNCTLLHoa5PI8-7" value="titan" style="text;html=1;align=center;verticalAlign=middle;resizable=0;points=[];autosize=1;" parent="KdWkagkeOh0UaSwJcCsU-1" vertex="1">
          <mxGeometry x="510" y="410" width="40" height="20" as="geometry" />
        </mxCell>
        <mxCell id="msfEPt7qNCTLLHoa5PI8-8" value="AA" style="text;html=1;align=center;verticalAlign=middle;resizable=0;points=[];autosize=1;" parent="KdWkagkeOh0UaSwJcCsU-1" vertex="1">
          <mxGeometry x="515" y="430" width="30" height="20" as="geometry" />
        </mxCell>
      </root>
    </mxGraphModel>
  </diagram>
  <diagram id="kgp_9NfSpocd47X-NfcW" name="数据边界图">
    <mxGraphModel dx="1697" dy="949" grid="0" gridSize="10" guides="1" tooltips="1" connect="1" arrows="1" fold="1" page="1" pageScale="1" pageWidth="827" pageHeight="1169" math="0" shadow="0">
      <root>
        <mxCell id="JSlR4FGpFaE8FHr0aU_a-0" />
        <mxCell id="JSlR4FGpFaE8FHr0aU_a-1" parent="JSlR4FGpFaE8FHr0aU_a-0" />
        <mxCell id="0Lp62ipD5Jpq3mA8Vx1w-0" value="广告前端" style="fillColor=none;strokeColor=#5A6C86;dashed=1;verticalAlign=top;fontStyle=0;fontColor=#5A6C86;container=0;" parent="JSlR4FGpFaE8FHr0aU_a-1" vertex="1">
          <mxGeometry x="645" y="581" width="100" height="101.5" as="geometry" />
        </mxCell>
        <mxCell id="0Lp62ipD5Jpq3mA8Vx1w-1" value="广告平台" style="fillColor=none;strokeColor=#5A6C86;dashed=1;verticalAlign=top;fontStyle=0;fontColor=#5A6C86;container=0;" parent="JSlR4FGpFaE8FHr0aU_a-1" vertex="1">
          <mxGeometry x="124.75" y="581.5" width="100" height="101.5" as="geometry" />
        </mxCell>
        <mxCell id="0Lp62ipD5Jpq3mA8Vx1w-2" value="大数据" style="fillColor=none;strokeColor=#5A6C86;dashed=1;verticalAlign=top;fontStyle=0;fontColor=#5A6C86;container=0;" parent="JSlR4FGpFaE8FHr0aU_a-1" vertex="1">
          <mxGeometry x="130" y="57.5" width="100" height="101.5" as="geometry" />
        </mxCell>
        <mxCell id="0Lp62ipD5Jpq3mA8Vx1w-3" value="广告数据" style="fillColor=none;strokeColor=#5A6C86;dashed=1;verticalAlign=top;fontStyle=1;container=0;fontColor=#FF0000;" parent="JSlR4FGpFaE8FHr0aU_a-1" vertex="1">
          <mxGeometry x="364.3" y="346.5" width="125.7" height="132.75" as="geometry" />
        </mxCell>
        <mxCell id="0Lp62ipD5Jpq3mA8Vx1w-4" value="广告引擎" style="fillColor=none;strokeColor=#5A6C86;dashed=1;verticalAlign=top;fontStyle=0;fontColor=#5A6C86;container=0;" parent="JSlR4FGpFaE8FHr0aU_a-1" vertex="1">
          <mxGeometry x="630" y="54.5" width="100" height="101.5" as="geometry" />
        </mxCell>
        <mxCell id="0Lp62ipD5Jpq3mA8Vx1w-5" value="" style="outlineConnect=0;fontColor=#232F3E;gradientColor=#F78E04;gradientDirection=north;fillColor=#D05C17;strokeColor=#ffffff;dashed=0;verticalLabelPosition=bottom;verticalAlign=top;align=center;html=1;fontSize=12;fontStyle=0;aspect=fixed;shape=mxgraph.aws4.resourceIcon;resIcon=mxgraph.aws4.eks;container=0;" parent="JSlR4FGpFaE8FHr0aU_a-1" vertex="1">
          <mxGeometry x="645" y="77.5" width="70" height="70" as="geometry" />
        </mxCell>
        <mxCell id="0Lp62ipD5Jpq3mA8Vx1w-6" value="" style="outlineConnect=0;fontColor=#232F3E;gradientDirection=north;strokeColor=#ffffff;dashed=0;verticalLabelPosition=bottom;verticalAlign=top;align=center;html=1;fontSize=12;fontStyle=0;aspect=fixed;shape=mxgraph.aws4.resourceIcon;resIcon=mxgraph.aws4.support;labelBackgroundColor=#ffffff;fillColor=#00994D;container=0;" parent="JSlR4FGpFaE8FHr0aU_a-1" vertex="1">
          <mxGeometry x="140" y="603" width="69.5" height="69.5" as="geometry" />
        </mxCell>
        <mxCell id="0Lp62ipD5Jpq3mA8Vx1w-7" value="" style="outlineConnect=0;fontColor=#232F3E;gradientDirection=north;strokeColor=#ffffff;dashed=0;verticalLabelPosition=bottom;verticalAlign=top;align=center;html=1;fontSize=12;fontStyle=0;aspect=fixed;shape=mxgraph.aws4.resourceIcon;resIcon=mxgraph.aws4.compute;labelBackgroundColor=#ffffff;fillColor=#CC0066;container=0;" parent="JSlR4FGpFaE8FHr0aU_a-1" vertex="1">
          <mxGeometry x="340" y="81.00230769230768" width="70" height="70" as="geometry" />
        </mxCell>
        <mxCell id="0Lp62ipD5Jpq3mA8Vx1w-8" value="" style="outlineConnect=0;fontColor=#232F3E;gradientColor=#4D72F3;gradientDirection=north;fillColor=#3334B9;strokeColor=#ffffff;dashed=0;verticalLabelPosition=bottom;verticalAlign=top;align=center;html=1;fontSize=12;fontStyle=0;aspect=fixed;shape=mxgraph.aws4.resourceIcon;resIcon=mxgraph.aws4.timestream;labelBackgroundColor=#ffffff;container=0;" parent="JSlR4FGpFaE8FHr0aU_a-1" vertex="1">
          <mxGeometry x="376.46" y="370" width="101.38" height="101.38" as="geometry" />
        </mxCell>
        <mxCell id="0Lp62ipD5Jpq3mA8Vx1w-9" value="" style="outlineConnect=0;fontColor=#232F3E;gradientColor=#F54749;gradientDirection=north;fillColor=#C7131F;strokeColor=#ffffff;dashed=0;verticalLabelPosition=bottom;verticalAlign=top;align=center;html=1;fontSize=12;fontStyle=0;aspect=fixed;shape=mxgraph.aws4.resourceIcon;resIcon=mxgraph.aws4.mobile;" parent="JSlR4FGpFaE8FHr0aU_a-1" vertex="1">
          <mxGeometry x="662.25" y="606" width="67.75" height="67.75" as="geometry" />
        </mxCell>
        <mxCell id="0Lp62ipD5Jpq3mA8Vx1w-10" value="" style="outlineConnect=0;fontColor=#232F3E;gradientColor=none;fillColor=#3334B9;strokeColor=none;dashed=0;verticalLabelPosition=bottom;verticalAlign=top;align=center;html=1;fontSize=12;fontStyle=0;aspect=fixed;pointerEvents=1;shape=mxgraph.aws4.rds_mysql_instance;labelBackgroundColor=#ffffff;" parent="JSlR4FGpFaE8FHr0aU_a-1" vertex="1">
          <mxGeometry x="130" y="416" width="69" height="69" as="geometry" />
        </mxCell>
        <mxCell id="0Lp62ipD5Jpq3mA8Vx1w-11" style="edgeStyle=orthogonalEdgeStyle;shape=flexArrow;rounded=1;orthogonalLoop=1;jettySize=auto;html=1;width=5;endWidth=10.344827586206897;endSize=4.0344827586206895;" parent="JSlR4FGpFaE8FHr0aU_a-1" edge="1">
          <mxGeometry relative="1" as="geometry">
            <mxPoint x="500" y="406.26" as="targetPoint" />
            <mxPoint x="580" y="406.1300000000001" as="sourcePoint" />
            <Array as="points">
              <mxPoint x="530" y="406.13" />
              <mxPoint x="530" y="406.13" />
            </Array>
          </mxGeometry>
        </mxCell>
        <mxCell id="0Lp62ipD5Jpq3mA8Vx1w-12" value="HDFS" style="text;html=1;align=center;verticalAlign=middle;resizable=0;points=[];autosize=1;" parent="JSlR4FGpFaE8FHr0aU_a-1" vertex="1">
          <mxGeometry x="250" y="220" width="50" height="20" as="geometry" />
        </mxCell>
        <mxCell id="0Lp62ipD5Jpq3mA8Vx1w-13" value="" style="edgeStyle=orthogonalEdgeStyle;shape=flexArrow;rounded=1;orthogonalLoop=1;jettySize=auto;html=1;width=5.333333333333333;endSize=3.5533333333333332;endWidth=9.777777777777779;" parent="JSlR4FGpFaE8FHr0aU_a-1" edge="1">
          <mxGeometry relative="1" as="geometry">
            <mxPoint x="179" y="160" as="sourcePoint" />
            <mxPoint x="240" y="264" as="targetPoint" />
            <Array as="points">
              <mxPoint x="179" y="264" />
            </Array>
          </mxGeometry>
        </mxCell>
        <mxCell id="0Lp62ipD5Jpq3mA8Vx1w-14" value="pingback数据&lt;br&gt;vv，dau数据" style="text;html=1;align=center;verticalAlign=middle;resizable=0;points=[];autosize=1;" parent="JSlR4FGpFaE8FHr0aU_a-1" vertex="1">
          <mxGeometry x="180" y="190" width="90" height="30" as="geometry" />
        </mxCell>
        <mxCell id="0Lp62ipD5Jpq3mA8Vx1w-15" value="" style="shape=flexArrow;endArrow=classic;html=1;" parent="JSlR4FGpFaE8FHr0aU_a-1" edge="1">
          <mxGeometry width="50" height="50" relative="1" as="geometry">
            <mxPoint x="173.5" y="580" as="sourcePoint" />
            <mxPoint x="173.5" y="490" as="targetPoint" />
          </mxGeometry>
        </mxCell>
        <mxCell id="0Lp62ipD5Jpq3mA8Vx1w-16" value="" style="shape=flexArrow;endArrow=classic;html=1;entryX=0.5;entryY=0;entryDx=0;entryDy=0;" parent="JSlR4FGpFaE8FHr0aU_a-1" edge="1">
          <mxGeometry width="50" height="50" relative="1" as="geometry">
            <mxPoint x="679.5" y="160" as="sourcePoint" />
            <mxPoint x="680" y="346.5" as="targetPoint" />
            <Array as="points">
              <mxPoint x="679.5" y="240" />
            </Array>
          </mxGeometry>
        </mxCell>
        <mxCell id="0Lp62ipD5Jpq3mA8Vx1w-17" value="库存&lt;br&gt;计费&lt;br&gt;日志" style="text;html=1;align=center;verticalAlign=middle;resizable=0;points=[];autosize=1;" parent="JSlR4FGpFaE8FHr0aU_a-1" vertex="1">
          <mxGeometry x="630" y="210" width="40" height="50" as="geometry" />
        </mxCell>
        <mxCell id="0Lp62ipD5Jpq3mA8Vx1w-18" value="Debug&lt;br&gt;计费&lt;br&gt;日志" style="text;html=1;align=center;verticalAlign=middle;resizable=0;points=[];autosize=1;" parent="JSlR4FGpFaE8FHr0aU_a-1" vertex="1">
          <mxGeometry x="680" y="210.5" width="50" height="50" as="geometry" />
        </mxCell>
        <mxCell id="0Lp62ipD5Jpq3mA8Vx1w-19" value="" style="edgeStyle=orthogonalEdgeStyle;shape=flexArrow;rounded=1;orthogonalLoop=1;jettySize=auto;html=1;width=5.333333333333333;endSize=3.5533333333333332;endWidth=9.777777777777779;" parent="JSlR4FGpFaE8FHr0aU_a-1" edge="1">
          <mxGeometry relative="1" as="geometry">
            <mxPoint x="380" y="160" as="sourcePoint" />
            <mxPoint x="310" y="263" as="targetPoint" />
            <Array as="points">
              <mxPoint x="380" y="263" />
            </Array>
          </mxGeometry>
        </mxCell>
        <mxCell id="0Lp62ipD5Jpq3mA8Vx1w-20" value="用户画像标签&lt;br&gt;视频标签" style="text;html=1;align=center;verticalAlign=middle;resizable=0;points=[];autosize=1;" parent="JSlR4FGpFaE8FHr0aU_a-1" vertex="1">
          <mxGeometry x="290" y="195" width="90" height="30" as="geometry" />
        </mxCell>
        <mxCell id="0Lp62ipD5Jpq3mA8Vx1w-21" value="" style="edgeStyle=orthogonalEdgeStyle;shape=flexArrow;rounded=1;orthogonalLoop=1;jettySize=auto;html=1;width=5.333333333333333;endSize=3.5533333333333332;endWidth=9.777777777777779;" parent="JSlR4FGpFaE8FHr0aU_a-1" edge="1">
          <mxGeometry relative="1" as="geometry">
            <mxPoint x="279" y="310" as="sourcePoint" />
            <mxPoint x="360" y="414" as="targetPoint" />
            <Array as="points">
              <mxPoint x="279" y="414" />
            </Array>
          </mxGeometry>
        </mxCell>
        <mxCell id="0Lp62ipD5Jpq3mA8Vx1w-22" value="http" style="text;html=1;resizable=0;autosize=1;align=center;verticalAlign=middle;points=[];fillColor=none;strokeColor=none;rounded=0;" parent="JSlR4FGpFaE8FHr0aU_a-1" vertex="1">
          <mxGeometry x="537.84" y="495" width="40" height="20" as="geometry" />
        </mxCell>
        <mxCell id="0Lp62ipD5Jpq3mA8Vx1w-23" value="&lt;br&gt;aa查询&lt;br&gt;titan查询" style="text;html=1;align=center;verticalAlign=middle;resizable=0;points=[];autosize=1;" parent="JSlR4FGpFaE8FHr0aU_a-1" vertex="1">
          <mxGeometry x="530" y="515" width="60" height="50" as="geometry" />
        </mxCell>
        <mxCell id="0Lp62ipD5Jpq3mA8Vx1w-24" value="http" style="text;html=1;align=center;verticalAlign=middle;resizable=0;points=[];autosize=1;" parent="JSlR4FGpFaE8FHr0aU_a-1" vertex="1">
          <mxGeometry x="500" y="260.5" width="40" height="20" as="geometry" />
        </mxCell>
        <mxCell id="0Lp62ipD5Jpq3mA8Vx1w-25" value="" style="endArrow=classic;html=1;exitX=0;exitY=0.5;exitDx=0;exitDy=0;entryX=0.83;entryY=0.001;entryDx=0;entryDy=0;entryPerimeter=0;" parent="JSlR4FGpFaE8FHr0aU_a-1" source="0Lp62ipD5Jpq3mA8Vx1w-4" target="0Lp62ipD5Jpq3mA8Vx1w-3" edge="1">
          <mxGeometry width="50" height="50" relative="1" as="geometry">
            <mxPoint x="620" y="110" as="sourcePoint" />
            <mxPoint x="440" y="340" as="targetPoint" />
            <Array as="points">
              <mxPoint x="470" y="105" />
            </Array>
          </mxGeometry>
        </mxCell>
        <mxCell id="0Lp62ipD5Jpq3mA8Vx1w-26" value="提供业务定制查询&lt;br&gt;例如：奇胜订单累计ctr&lt;br&gt;订单累计缺失量" style="text;html=1;align=center;verticalAlign=middle;resizable=0;points=[];autosize=1;" parent="JSlR4FGpFaE8FHr0aU_a-1" vertex="1">
          <mxGeometry x="487.84" y="120" width="140" height="50" as="geometry" />
        </mxCell>
        <mxCell id="0Lp62ipD5Jpq3mA8Vx1w-27" value="http" style="text;html=1;align=center;verticalAlign=middle;resizable=0;points=[];autosize=1;" parent="JSlR4FGpFaE8FHr0aU_a-1" vertex="1">
          <mxGeometry x="290" y="495" width="40" height="20" as="geometry" />
        </mxCell>
        <mxCell id="0Lp62ipD5Jpq3mA8Vx1w-28" value="&lt;br&gt;广告主报表&lt;br&gt;marketing api 数据" style="text;html=1;align=center;verticalAlign=middle;resizable=0;points=[];autosize=1;" parent="JSlR4FGpFaE8FHr0aU_a-1" vertex="1">
          <mxGeometry x="245" y="530" width="110" height="50" as="geometry" />
        </mxCell>
        <mxCell id="0Lp62ipD5Jpq3mA8Vx1w-29" style="edgeStyle=orthogonalEdgeStyle;shape=flexArrow;rounded=1;orthogonalLoop=1;jettySize=auto;html=1;width=5;endWidth=10.344827586206897;endSize=4.0344827586206895;" parent="JSlR4FGpFaE8FHr0aU_a-1" edge="1">
          <mxGeometry relative="1" as="geometry">
            <mxPoint x="360" y="450" as="targetPoint" />
            <mxPoint x="210" y="450" as="sourcePoint" />
            <Array as="points">
              <mxPoint x="210" y="450" />
            </Array>
          </mxGeometry>
        </mxCell>
        <mxCell id="0Lp62ipD5Jpq3mA8Vx1w-30" value="" style="endArrow=classic;html=1;" parent="JSlR4FGpFaE8FHr0aU_a-1" edge="1">
          <mxGeometry width="50" height="50" relative="1" as="geometry">
            <mxPoint x="180" y="580" as="sourcePoint" />
            <mxPoint x="400" y="490" as="targetPoint" />
          </mxGeometry>
        </mxCell>
        <mxCell id="0Lp62ipD5Jpq3mA8Vx1w-31" value="素材，订单" style="text;html=1;align=center;verticalAlign=middle;resizable=0;points=[];autosize=1;" parent="JSlR4FGpFaE8FHr0aU_a-1" vertex="1">
          <mxGeometry x="90" y="530" width="80" height="20" as="geometry" />
        </mxCell>
        <mxCell id="0Lp62ipD5Jpq3mA8Vx1w-32" value="" style="endArrow=classic;html=1;exitX=0.5;exitY=0;exitDx=0;exitDy=0;" parent="JSlR4FGpFaE8FHr0aU_a-1" source="0Lp62ipD5Jpq3mA8Vx1w-0" edge="1">
          <mxGeometry width="50" height="50" relative="1" as="geometry">
            <mxPoint x="580" y="560" as="sourcePoint" />
            <mxPoint x="460" y="490" as="targetPoint" />
          </mxGeometry>
        </mxCell>
        <mxCell id="0Lp62ipD5Jpq3mA8Vx1w-33" value="" style="outlineConnect=0;fontColor=#232F3E;gradientColor=#60A337;gradientDirection=north;fillColor=#277116;strokeColor=#ffffff;dashed=0;verticalLabelPosition=bottom;verticalAlign=top;align=center;html=1;fontSize=12;fontStyle=0;aspect=fixed;shape=mxgraph.aws4.resourceIcon;resIcon=mxgraph.aws4.elastic_file_system;" parent="JSlR4FGpFaE8FHr0aU_a-1" vertex="1">
          <mxGeometry x="245" y="240" width="60" height="60" as="geometry" />
        </mxCell>
        <mxCell id="0Lp62ipD5Jpq3mA8Vx1w-34" value="" style="group" parent="JSlR4FGpFaE8FHr0aU_a-1" vertex="1" connectable="0">
          <mxGeometry x="600" y="346.5" width="160" height="99.5" as="geometry" />
        </mxCell>
        <mxCell id="0Lp62ipD5Jpq3mA8Vx1w-35" value="" style="outlineConnect=0;fontColor=#232F3E;gradientColor=none;fillColor=#116D5B;strokeColor=none;dashed=0;verticalLabelPosition=bottom;verticalAlign=top;align=center;html=1;fontSize=12;fontStyle=0;aspect=fixed;shape=mxgraph.aws4.agent2;labelBackgroundColor=#ffffff;" parent="0Lp62ipD5Jpq3mA8Vx1w-34" vertex="1">
          <mxGeometry x="95" y="29" width="51" height="51" as="geometry" />
        </mxCell>
        <mxCell id="0Lp62ipD5Jpq3mA8Vx1w-36" value="HDFS" style="text;html=1;align=center;verticalAlign=middle;resizable=0;points=[];autosize=1;" parent="0Lp62ipD5Jpq3mA8Vx1w-34" vertex="1">
          <mxGeometry x="19" y="7" width="50" height="20" as="geometry" />
        </mxCell>
        <mxCell id="0Lp62ipD5Jpq3mA8Vx1w-37" value="Kafka" style="text;html=1;align=center;verticalAlign=middle;resizable=0;points=[];autosize=1;" parent="0Lp62ipD5Jpq3mA8Vx1w-34" vertex="1">
          <mxGeometry x="95" y="9" width="50" height="20" as="geometry" />
        </mxCell>
        <mxCell id="0Lp62ipD5Jpq3mA8Vx1w-38" value="" style="outlineConnect=0;fontColor=#232F3E;gradientColor=#60A337;gradientDirection=north;fillColor=#277116;strokeColor=#ffffff;dashed=0;verticalLabelPosition=bottom;verticalAlign=top;align=center;html=1;fontSize=12;fontStyle=0;aspect=fixed;shape=mxgraph.aws4.resourceIcon;resIcon=mxgraph.aws4.elastic_file_system;" parent="0Lp62ipD5Jpq3mA8Vx1w-34" vertex="1">
          <mxGeometry x="19" y="30.75" width="47.5" height="47.5" as="geometry" />
        </mxCell>
        <mxCell id="0Lp62ipD5Jpq3mA8Vx1w-39" value="" style="fillColor=none;strokeColor=#5A6C86;dashed=1;verticalAlign=top;fontStyle=0;fontColor=#5A6C86;labelBackgroundColor=#ffffff;container=0;" parent="0Lp62ipD5Jpq3mA8Vx1w-34" vertex="1">
          <mxGeometry y="9.5" width="160" height="90" as="geometry" />
        </mxCell>
        <mxCell id="0Lp62ipD5Jpq3mA8Vx1w-40" value="广告算法" style="fillColor=none;strokeColor=#5A6C86;dashed=1;verticalAlign=top;fontStyle=0;fontColor=#5A6C86;container=0;" parent="JSlR4FGpFaE8FHr0aU_a-1" vertex="1">
          <mxGeometry x="325" y="57.5" width="100" height="101.5" as="geometry" />
        </mxCell>
        <mxCell id="0Lp62ipD5Jpq3mA8Vx1w-41" value="" style="outlineConnect=0;fontColor=#232F3E;gradientColor=none;fillColor=#3334B9;strokeColor=none;dashed=0;verticalLabelPosition=bottom;verticalAlign=top;align=center;html=1;fontSize=12;fontStyle=0;aspect=fixed;pointerEvents=1;shape=mxgraph.aws4.table;" parent="JSlR4FGpFaE8FHr0aU_a-1" vertex="1">
          <mxGeometry x="150" y="86" width="60" height="60" as="geometry" />
        </mxCell>
      </root>
    </mxGraphModel>
  </diagram>
  <diagram id="36Hofw19tmeCFlXGPYmw" name="算法边界图">
    <mxGraphModel dx="1697" dy="949" grid="0" gridSize="10" guides="1" tooltips="1" connect="1" arrows="1" fold="1" page="1" pageScale="1" pageWidth="827" pageHeight="1169" math="0" shadow="0">
      <root>
        <mxCell id="ex7RakcuXzD5NBLmSYM6-0" />
        <mxCell id="ex7RakcuXzD5NBLmSYM6-1" parent="ex7RakcuXzD5NBLmSYM6-0" />
        <mxCell id="w1NvlELgmP5udZtSMXZb-0" value="" style="outlineConnect=0;fontColor=#232F3E;gradientDirection=north;strokeColor=#ffffff;dashed=0;verticalLabelPosition=bottom;verticalAlign=top;align=center;html=1;fontSize=12;fontStyle=0;aspect=fixed;shape=mxgraph.aws4.resourceIcon;resIcon=mxgraph.aws4.compute;labelBackgroundColor=#ffffff;fillColor=#CC0066;container=0;" parent="ex7RakcuXzD5NBLmSYM6-1" vertex="1">
          <mxGeometry x="300" y="298.39" width="123.23" height="123.23" as="geometry" />
        </mxCell>
        <mxCell id="mY5NqRrA_kXhytow9yJB-4" value="" style="edgeStyle=orthogonalEdgeStyle;shape=flexArrow;rounded=0;orthogonalLoop=1;jettySize=auto;html=1;width=6.666666666666667;endSize=6.886666666666667;endWidth=11.555555555555555;" parent="ex7RakcuXzD5NBLmSYM6-1" edge="1">
          <mxGeometry relative="1" as="geometry">
            <mxPoint x="414" y="270" as="sourcePoint" />
            <mxPoint x="414" y="166" as="targetPoint" />
            <Array as="points">
              <mxPoint x="414" y="220" />
              <mxPoint x="414" y="220" />
            </Array>
          </mxGeometry>
        </mxCell>
        <mxCell id="Okk5LLgvq7N25DK6qjY--9" style="edgeStyle=orthogonalEdgeStyle;rounded=0;orthogonalLoop=1;jettySize=auto;html=1;entryX=1;entryY=0.25;entryDx=0;entryDy=0;" parent="ex7RakcuXzD5NBLmSYM6-1" source="w1NvlELgmP5udZtSMXZb-1" target="4MgxHoEe7s8ZLhx2_ML6-1" edge="1">
          <mxGeometry relative="1" as="geometry">
            <Array as="points">
              <mxPoint x="240" y="430" />
              <mxPoint x="240" y="537" />
            </Array>
          </mxGeometry>
        </mxCell>
        <mxCell id="L4fKBclz-gNO_ugj1wrt-4" style="edgeStyle=orthogonalEdgeStyle;shape=flexArrow;rounded=0;orthogonalLoop=1;jettySize=auto;html=1;entryX=-0.022;entryY=0.092;entryDx=0;entryDy=0;entryPerimeter=0;width=5.333333333333333;endSize=5.12;endWidth=9.777777777777779;" parent="ex7RakcuXzD5NBLmSYM6-1" edge="1">
          <mxGeometry relative="1" as="geometry">
            <mxPoint x="453.5" y="324.0733333333332" as="sourcePoint" />
            <mxPoint x="681.3599999999999" y="323.99999999999994" as="targetPoint" />
            <Array as="points">
              <mxPoint x="567" y="324.34" />
            </Array>
          </mxGeometry>
        </mxCell>
        <mxCell id="L4fKBclz-gNO_ugj1wrt-11" style="edgeStyle=orthogonalEdgeStyle;rounded=0;orthogonalLoop=1;jettySize=auto;html=1;" parent="ex7RakcuXzD5NBLmSYM6-1" edge="1">
          <mxGeometry relative="1" as="geometry">
            <mxPoint x="679" y="375" as="targetPoint" />
            <mxPoint x="452.5" y="375" as="sourcePoint" />
          </mxGeometry>
        </mxCell>
        <mxCell id="w1NvlELgmP5udZtSMXZb-1" value="广告算法" style="fillColor=none;strokeColor=#5A6C86;dashed=1;verticalAlign=top;fontStyle=1;labelBackgroundColor=#ffffff;container=0;fontColor=#FF0000;" parent="ex7RakcuXzD5NBLmSYM6-1" vertex="1">
          <mxGeometry x="270" y="270" width="183.5" height="180" as="geometry" />
        </mxCell>
        <mxCell id="qqm8uj7oMnPpX7uPR1jR-1" value="" style="outlineConnect=0;fontColor=#232F3E;gradientColor=#945DF2;gradientDirection=north;fillColor=#5A30B5;strokeColor=#ffffff;dashed=0;verticalLabelPosition=bottom;verticalAlign=top;align=center;html=1;fontSize=12;fontStyle=0;aspect=fixed;shape=mxgraph.aws4.resourceIcon;resIcon=mxgraph.aws4.analytics;" parent="ex7RakcuXzD5NBLmSYM6-1" vertex="1">
          <mxGeometry x="51" y="211" width="78" height="78" as="geometry" />
        </mxCell>
        <mxCell id="TzgtpFdfFAwoCZ1mfIRa-0" value="" style="outlineConnect=0;fontColor=#232F3E;gradientColor=none;fillColor=#277116;strokeColor=none;dashed=0;verticalLabelPosition=bottom;verticalAlign=top;align=center;html=1;fontSize=12;fontStyle=0;aspect=fixed;pointerEvents=1;shape=mxgraph.aws4.house;" parent="ex7RakcuXzD5NBLmSYM6-1" vertex="1">
          <mxGeometry x="51" y="369" width="78" height="78" as="geometry" />
        </mxCell>
        <mxCell id="cjtRRxM-AfOtGaaB4Oyw-7" style="edgeStyle=orthogonalEdgeStyle;shape=flexArrow;rounded=0;orthogonalLoop=1;jettySize=auto;html=1;entryX=1;entryY=1;entryDx=0;entryDy=0;endWidth=12;endSize=7;width=7;" parent="ex7RakcuXzD5NBLmSYM6-1" edge="1">
          <mxGeometry relative="1" as="geometry">
            <Array as="points">
              <mxPoint x="325" y="495" />
            </Array>
            <mxPoint x="324.5" y="538" as="sourcePoint" />
            <mxPoint x="324.5" y="452" as="targetPoint" />
          </mxGeometry>
        </mxCell>
        <mxCell id="4MgxHoEe7s8ZLhx2_ML6-0" value="" style="group" parent="ex7RakcuXzD5NBLmSYM6-1" vertex="1" connectable="0">
          <mxGeometry x="30" y="507" width="120" height="120" as="geometry" />
        </mxCell>
        <mxCell id="4MgxHoEe7s8ZLhx2_ML6-1" value="广告数据" style="fillColor=none;strokeColor=#5A6C86;dashed=1;verticalAlign=top;fontStyle=0;fontColor=#5A6C86;labelBackgroundColor=#ffffff;" parent="4MgxHoEe7s8ZLhx2_ML6-0" vertex="1">
          <mxGeometry width="120" height="120" as="geometry" />
        </mxCell>
        <mxCell id="4MgxHoEe7s8ZLhx2_ML6-2" value="" style="outlineConnect=0;fontColor=#232F3E;gradientColor=#4D72F3;gradientDirection=north;fillColor=#3334B9;strokeColor=#ffffff;dashed=0;verticalLabelPosition=bottom;verticalAlign=top;align=center;html=1;fontSize=12;fontStyle=0;aspect=fixed;shape=mxgraph.aws4.resourceIcon;resIcon=mxgraph.aws4.timestream;labelBackgroundColor=#ffffff;container=0;" parent="4MgxHoEe7s8ZLhx2_ML6-0" vertex="1">
          <mxGeometry x="26" y="28" width="70" height="70" as="geometry" />
        </mxCell>
        <mxCell id="KF4_-ssiVoUw9Cjimfal-0" value="广告引擎" style="fillColor=none;strokeColor=#5A6C86;dashed=1;verticalAlign=top;fontStyle=0;fontColor=#5A6C86;container=0;" parent="ex7RakcuXzD5NBLmSYM6-1" vertex="1">
          <mxGeometry x="684" y="306.62" width="120" height="120" as="geometry" />
        </mxCell>
        <mxCell id="KF4_-ssiVoUw9Cjimfal-1" value="" style="outlineConnect=0;fontColor=#232F3E;gradientColor=#F78E04;gradientDirection=north;fillColor=#D05C17;strokeColor=#ffffff;dashed=0;verticalLabelPosition=bottom;verticalAlign=top;align=center;html=1;fontSize=12;fontStyle=0;aspect=fixed;shape=mxgraph.aws4.resourceIcon;resIcon=mxgraph.aws4.eks;container=0;" parent="ex7RakcuXzD5NBLmSYM6-1" vertex="1">
          <mxGeometry x="709" y="331.62" width="70" height="70" as="geometry" />
        </mxCell>
        <mxCell id="AbCB7ry2BcwRtoGgCKr6-0" value="百度隔离域" style="fillColor=none;strokeColor=#5A6C86;dashed=1;verticalAlign=top;fontStyle=0;fontColor=#5A6C86;container=0;" parent="ex7RakcuXzD5NBLmSYM6-1" vertex="1">
          <mxGeometry x="30" y="339" width="120" height="120" as="geometry" />
        </mxCell>
        <mxCell id="Okk5LLgvq7N25DK6qjY--5" style="edgeStyle=orthogonalEdgeStyle;shape=flexArrow;rounded=0;orthogonalLoop=1;jettySize=auto;html=1;entryX=0;entryY=0.944;entryDx=0;entryDy=0;entryPerimeter=0;width=6.666666666666667;endSize=6.22;endWidth=10.222222222222221;" parent="ex7RakcuXzD5NBLmSYM6-1" source="AbCB7ry2BcwRtoGgCKr6-1" edge="1">
          <mxGeometry relative="1" as="geometry">
            <mxPoint x="270" y="398.9200000000001" as="targetPoint" />
          </mxGeometry>
        </mxCell>
        <mxCell id="AbCB7ry2BcwRtoGgCKr6-1" value="百度隔离域" style="fillColor=none;strokeColor=#5A6C86;dashed=1;verticalAlign=top;fontStyle=0;fontColor=#5A6C86;container=0;" parent="ex7RakcuXzD5NBLmSYM6-1" vertex="1">
          <mxGeometry x="30" y="339" width="120" height="120" as="geometry" />
        </mxCell>
        <mxCell id="Okk5LLgvq7N25DK6qjY--1" style="edgeStyle=orthogonalEdgeStyle;shape=flexArrow;rounded=0;orthogonalLoop=1;jettySize=auto;html=1;entryX=-0.004;entryY=0.122;entryDx=0;entryDy=0;entryPerimeter=0;width=6.666666666666667;endSize=5.753333333333334;endWidth=14.222222222222221;" parent="ex7RakcuXzD5NBLmSYM6-1" source="AbCB7ry2BcwRtoGgCKr6-2" target="w1NvlELgmP5udZtSMXZb-1" edge="1">
          <mxGeometry relative="1" as="geometry">
            <Array as="points">
              <mxPoint x="210" y="230" />
              <mxPoint x="210" y="292" />
            </Array>
          </mxGeometry>
        </mxCell>
        <mxCell id="AbCB7ry2BcwRtoGgCKr6-2" value="BI" style="fillColor=none;strokeColor=#5A6C86;dashed=1;verticalAlign=top;fontStyle=0;fontColor=#5A6C86;container=0;" parent="ex7RakcuXzD5NBLmSYM6-1" vertex="1">
          <mxGeometry x="30" y="190" width="120" height="120" as="geometry" />
        </mxCell>
        <mxCell id="HZ77XYCUoPYPmSnT5hzq-0" value="基础服务" style="fillColor=none;strokeColor=#5A6C86;dashed=1;verticalAlign=top;fontStyle=0;fontColor=#5A6C86;" parent="ex7RakcuXzD5NBLmSYM6-1" vertex="1">
          <mxGeometry x="200" y="51" width="300" height="130" as="geometry" />
        </mxCell>
        <mxCell id="mY5NqRrA_kXhytow9yJB-1" value="" style="edgeStyle=orthogonalEdgeStyle;shape=flexArrow;rounded=0;orthogonalLoop=1;jettySize=auto;html=1;width=6;endSize=6.33;endWidth=12;" parent="ex7RakcuXzD5NBLmSYM6-1" source="HZ77XYCUoPYPmSnT5hzq-2" target="w1NvlELgmP5udZtSMXZb-1" edge="1">
          <mxGeometry relative="1" as="geometry">
            <Array as="points">
              <mxPoint x="286" y="240" />
              <mxPoint x="286" y="240" />
            </Array>
          </mxGeometry>
        </mxCell>
        <mxCell id="HZ77XYCUoPYPmSnT5hzq-2" value="" style="outlineConnect=0;fontColor=#232F3E;gradientColor=none;fillColor=#3334B9;strokeColor=none;dashed=0;verticalLabelPosition=bottom;verticalAlign=top;align=center;html=1;fontSize=12;fontStyle=0;aspect=fixed;pointerEvents=1;shape=mxgraph.aws4.table;" parent="ex7RakcuXzD5NBLmSYM6-1" vertex="1">
          <mxGeometry x="256" y="100" width="60" height="60" as="geometry" />
        </mxCell>
        <mxCell id="HZ77XYCUoPYPmSnT5hzq-4" value="大数据" style="text;html=1;align=center;verticalAlign=middle;resizable=0;points=[];autosize=1;" parent="ex7RakcuXzD5NBLmSYM6-1" vertex="1">
          <mxGeometry x="256" y="80" width="50" height="20" as="geometry" />
        </mxCell>
        <mxCell id="HZ77XYCUoPYPmSnT5hzq-5" value="深度学习" style="text;html=1;align=center;verticalAlign=middle;resizable=0;points=[];autosize=1;" parent="ex7RakcuXzD5NBLmSYM6-1" vertex="1">
          <mxGeometry x="383.5" y="80" width="60" height="20" as="geometry" />
        </mxCell>
        <mxCell id="mY5NqRrA_kXhytow9yJB-0" value="" style="outlineConnect=0;fontColor=#232F3E;gradientColor=#4AB29A;gradientDirection=north;fillColor=#116D5B;strokeColor=#ffffff;dashed=0;verticalLabelPosition=bottom;verticalAlign=top;align=center;html=1;fontSize=12;fontStyle=0;aspect=fixed;shape=mxgraph.aws4.resourceIcon;resIcon=mxgraph.aws4.deep_learning_amis;" parent="ex7RakcuXzD5NBLmSYM6-1" vertex="1">
          <mxGeometry x="380.5" y="100" width="66" height="66" as="geometry" />
        </mxCell>
        <mxCell id="mY5NqRrA_kXhytow9yJB-5" value="模型更新" style="text;html=1;align=center;verticalAlign=middle;resizable=0;points=[];autosize=1;" parent="ex7RakcuXzD5NBLmSYM6-1" vertex="1">
          <mxGeometry x="414" y="230" width="60" height="20" as="geometry" />
        </mxCell>
        <mxCell id="Okk5LLgvq7N25DK6qjY--2" value="观影兴趣" style="text;html=1;align=center;verticalAlign=middle;resizable=0;points=[];autosize=1;" parent="ex7RakcuXzD5NBLmSYM6-1" vertex="1">
          <mxGeometry x="150" y="202" width="60" height="20" as="geometry" />
        </mxCell>
        <mxCell id="Okk5LLgvq7N25DK6qjY--3" value="站内画像" style="text;html=1;align=center;verticalAlign=middle;resizable=0;points=[];autosize=1;" parent="ex7RakcuXzD5NBLmSYM6-1" vertex="1">
          <mxGeometry x="148" y="235" width="60" height="20" as="geometry" />
        </mxCell>
        <mxCell id="Okk5LLgvq7N25DK6qjY--4" value="站外画像" style="text;html=1;align=center;verticalAlign=middle;resizable=0;points=[];autosize=1;" parent="ex7RakcuXzD5NBLmSYM6-1" vertex="1">
          <mxGeometry x="148" y="255" width="60" height="20" as="geometry" />
        </mxCell>
        <mxCell id="Okk5LLgvq7N25DK6qjY--6" value="file: 用户搜索词" style="text;html=1;align=center;verticalAlign=middle;resizable=0;points=[];autosize=1;" parent="ex7RakcuXzD5NBLmSYM6-1" vertex="1">
          <mxGeometry x="154" y="374" width="92" height="18" as="geometry" />
        </mxCell>
        <mxCell id="Okk5LLgvq7N25DK6qjY--7" value="" style="edgeStyle=orthogonalEdgeStyle;shape=flexArrow;rounded=0;orthogonalLoop=1;jettySize=auto;html=1;entryX=0;entryY=1;entryDx=0;entryDy=0;width=8;endSize=5.333333333333333;endWidth=12;" parent="ex7RakcuXzD5NBLmSYM6-1" edge="1">
          <mxGeometry relative="1" as="geometry">
            <mxPoint x="155" y="570" as="sourcePoint" />
            <mxPoint x="275" y="450" as="targetPoint" />
            <Array as="points">
              <mxPoint x="275" y="570" />
            </Array>
          </mxGeometry>
        </mxCell>
        <mxCell id="Okk5LLgvq7N25DK6qjY--8" value="hive/kafka" style="text;html=1;align=center;verticalAlign=middle;resizable=0;points=[];autosize=1;" parent="ex7RakcuXzD5NBLmSYM6-1" vertex="1">
          <mxGeometry x="170" y="549" width="70" height="20" as="geometry" />
        </mxCell>
        <mxCell id="Okk5LLgvq7N25DK6qjY--10" value="消耗" style="text;html=1;align=center;verticalAlign=middle;resizable=0;points=[];autosize=1;" parent="ex7RakcuXzD5NBLmSYM6-1" vertex="1">
          <mxGeometry x="180" y="497" width="34" height="18" as="geometry" />
        </mxCell>
        <mxCell id="Okk5LLgvq7N25DK6qjY--11" value="http" style="text;html=1;align=center;verticalAlign=middle;resizable=0;points=[];autosize=1;" parent="ex7RakcuXzD5NBLmSYM6-1" vertex="1">
          <mxGeometry x="208" y="427" width="40" height="20" as="geometry" />
        </mxCell>
        <mxCell id="nN7t5BXheWpqFXHUVHeC-5" value="" style="group" parent="ex7RakcuXzD5NBLmSYM6-1" vertex="1" connectable="0">
          <mxGeometry x="30" y="60" width="140" height="40" as="geometry" />
        </mxCell>
        <mxCell id="nN7t5BXheWpqFXHUVHeC-6" value="" style="endArrow=classic;html=1;" parent="nN7t5BXheWpqFXHUVHeC-5" edge="1">
          <mxGeometry width="50" height="50" relative="1" as="geometry">
            <mxPoint y="10" as="sourcePoint" />
            <mxPoint x="65.80000000000001" y="10" as="targetPoint" />
          </mxGeometry>
        </mxCell>
        <mxCell id="nN7t5BXheWpqFXHUVHeC-7" value="实时请求" style="text;html=1;align=center;verticalAlign=middle;resizable=0;points=[];autosize=1;" parent="nN7t5BXheWpqFXHUVHeC-5" vertex="1">
          <mxGeometry x="70" width="60" height="20" as="geometry" />
        </mxCell>
        <mxCell id="nN7t5BXheWpqFXHUVHeC-8" value="" style="shape=flexArrow;endArrow=classic;html=1;endWidth=7.657550535077288;endSize=5.048275862068966;width=6.8965517241379315;" parent="nN7t5BXheWpqFXHUVHeC-5" edge="1">
          <mxGeometry width="50" height="50" relative="1" as="geometry">
            <mxPoint x="0.6700000000000159" y="30" as="sourcePoint" />
            <mxPoint x="66.47000000000003" y="30" as="targetPoint" />
          </mxGeometry>
        </mxCell>
        <mxCell id="nN7t5BXheWpqFXHUVHeC-9" value="流批数据" style="text;html=1;align=center;verticalAlign=middle;resizable=0;points=[];autosize=1;" parent="nN7t5BXheWpqFXHUVHeC-5" vertex="1">
          <mxGeometry x="70" y="20" width="60" height="20" as="geometry" />
        </mxCell>
        <mxCell id="nN7t5BXheWpqFXHUVHeC-11" value="kafka/http/grpc" style="text;html=1;align=center;verticalAlign=middle;resizable=0;points=[];autosize=1;" parent="ex7RakcuXzD5NBLmSYM6-1" vertex="1">
          <mxGeometry x="382" y="520" width="89" height="18" as="geometry" />
        </mxCell>
        <mxCell id="nN7t5BXheWpqFXHUVHeC-12" value="询量/锁量" style="text;html=1;align=center;verticalAlign=middle;resizable=0;points=[];autosize=1;" parent="ex7RakcuXzD5NBLmSYM6-1" vertex="1">
          <mxGeometry x="382" y="470.02" width="61" height="18" as="geometry" />
        </mxCell>
        <mxCell id="L4fKBclz-gNO_ugj1wrt-6" value="couchbase/hikv：画像/标签/特征/定向/行业兴趣" style="text;html=1;align=center;verticalAlign=middle;resizable=0;points=[];autosize=1;" parent="ex7RakcuXzD5NBLmSYM6-1" vertex="1">
          <mxGeometry x="446.5" y="267" width="270" height="20" as="geometry" />
        </mxCell>
        <mxCell id="L4fKBclz-gNO_ugj1wrt-8" value="file：pcrt/pcvr/粗排模型/ecpm截断/AB模型配置" style="text;html=1;align=center;verticalAlign=middle;resizable=0;points=[];autosize=1;" parent="ex7RakcuXzD5NBLmSYM6-1" vertex="1">
          <mxGeometry x="451.5" y="285" width="259" height="18" as="geometry" />
        </mxCell>
        <mxCell id="L4fKBclz-gNO_ugj1wrt-10" value="mysql：行业兴趣/pdb上浮因子/AB路由" style="text;html=1;align=center;verticalAlign=middle;resizable=0;points=[];autosize=1;" parent="ex7RakcuXzD5NBLmSYM6-1" vertex="1">
          <mxGeometry x="449.5" y="304" width="216" height="18" as="geometry" />
        </mxCell>
        <mxCell id="L4fKBclz-gNO_ugj1wrt-12" value="redis：【读】实时曝光/实时消耗" style="text;html=1;align=center;verticalAlign=middle;resizable=0;points=[];autosize=1;" parent="ex7RakcuXzD5NBLmSYM6-1" vertex="1">
          <mxGeometry x="452.5" y="351.62" width="190" height="20" as="geometry" />
        </mxCell>
        <mxCell id="L4fKBclz-gNO_ugj1wrt-14" value="【写】平滑消耗/库存分配/智能出价因子" style="text;html=1;align=center;verticalAlign=middle;resizable=0;points=[];autosize=1;" parent="ex7RakcuXzD5NBLmSYM6-1" vertex="1">
          <mxGeometry x="452.5" y="379" width="221" height="18" as="geometry" />
        </mxCell>
        <mxCell id="cjtRRxM-AfOtGaaB4Oyw-2" value="FM模型" style="text;html=1;align=center;verticalAlign=middle;resizable=0;points=[];autosize=1;" parent="ex7RakcuXzD5NBLmSYM6-1" vertex="1">
          <mxGeometry x="230" y="220" width="60" height="20" as="geometry" />
        </mxCell>
        <mxCell id="cjtRRxM-AfOtGaaB4Oyw-3" value="spark" style="text;html=1;align=center;verticalAlign=middle;resizable=0;points=[];autosize=1;" parent="ex7RakcuXzD5NBLmSYM6-1" vertex="1">
          <mxGeometry x="240" y="182" width="40" height="20" as="geometry" />
        </mxCell>
        <mxCell id="cjtRRxM-AfOtGaaB4Oyw-4" value="hbase&lt;b&gt;/&lt;/b&gt;hive&lt;b&gt;/&lt;/b&gt;kafka" style="text;html=1;align=center;verticalAlign=middle;resizable=0;points=[];autosize=1;" parent="ex7RakcuXzD5NBLmSYM6-1" vertex="1">
          <mxGeometry x="150" y="298.39" width="110" height="20" as="geometry" />
        </mxCell>
        <mxCell id="cjtRRxM-AfOtGaaB4Oyw-5" value="jarvis" style="text;html=1;align=center;verticalAlign=middle;resizable=0;points=[];autosize=1;" parent="ex7RakcuXzD5NBLmSYM6-1" vertex="1">
          <mxGeometry x="417.23" y="191" width="40" height="20" as="geometry" />
        </mxCell>
        <mxCell id="cjtRRxM-AfOtGaaB4Oyw-8" value="mysql" style="text;html=1;align=center;verticalAlign=middle;resizable=0;points=[];autosize=1;" parent="ex7RakcuXzD5NBLmSYM6-1" vertex="1">
          <mxGeometry x="319" y="502" width="50" height="20" as="geometry" />
        </mxCell>
        <mxCell id="cjtRRxM-AfOtGaaB4Oyw-9" value="订单信息" style="text;html=1;align=center;verticalAlign=middle;resizable=0;points=[];autosize=1;" parent="ex7RakcuXzD5NBLmSYM6-1" vertex="1">
          <mxGeometry x="322.5" y="477" width="60" height="20" as="geometry" />
        </mxCell>
        <mxCell id="MxdA9wMumMS1yGLH6WiS-0" value="" style="group" parent="ex7RakcuXzD5NBLmSYM6-1" vertex="1" connectable="0">
          <mxGeometry x="319" y="544" width="120" height="120" as="geometry" />
        </mxCell>
        <mxCell id="UzgLXv2o4lGMGdg9jAIl-0" value="" style="outlineConnect=0;fontColor=#232F3E;gradientDirection=north;strokeColor=#ffffff;dashed=0;verticalLabelPosition=bottom;verticalAlign=top;align=center;html=1;fontSize=12;fontStyle=0;aspect=fixed;shape=mxgraph.aws4.resourceIcon;resIcon=mxgraph.aws4.support;labelBackgroundColor=#ffffff;fillColor=#00994D;container=0;" parent="MxdA9wMumMS1yGLH6WiS-0" vertex="1">
          <mxGeometry x="25" y="25" width="70" height="70" as="geometry" />
        </mxCell>
        <mxCell id="UzgLXv2o4lGMGdg9jAIl-1" value="广告平台" style="fillColor=none;strokeColor=#5A6C86;dashed=1;verticalAlign=top;fontStyle=0;fontColor=#5A6C86;labelBackgroundColor=#ffffff;container=0;" parent="MxdA9wMumMS1yGLH6WiS-0" vertex="1">
          <mxGeometry width="120" height="120" as="geometry" />
        </mxCell>
        <mxCell id="B4zxFYrDSeq-r2BXpk3W-0" value="" style="outlineConnect=0;fontColor=#232F3E;gradientColor=none;fillColor=#232F3E;strokeColor=none;dashed=0;verticalLabelPosition=bottom;verticalAlign=top;align=center;html=1;fontSize=12;fontStyle=0;aspect=fixed;pointerEvents=1;shape=mxgraph.aws4.users;" parent="ex7RakcuXzD5NBLmSYM6-1" vertex="1">
          <mxGeometry x="600" y="562" width="68" height="68" as="geometry" />
        </mxCell>
        <mxCell id="y1v1cGtarTLoeY6rKac5-1" style="edgeStyle=none;rounded=0;orthogonalLoop=1;jettySize=auto;html=1;fontColor=#FF0000;exitX=0.419;exitY=-0.034;exitDx=0;exitDy=0;exitPerimeter=0;" parent="ex7RakcuXzD5NBLmSYM6-1" source="B4zxFYrDSeq-r2BXpk3W-1" edge="1">
          <mxGeometry relative="1" as="geometry">
            <mxPoint x="460" y="430" as="targetPoint" />
          </mxGeometry>
        </mxCell>
        <mxCell id="B4zxFYrDSeq-r2BXpk3W-1" value="产品/运营" style="fillColor=none;strokeColor=#5A6C86;dashed=1;verticalAlign=top;fontStyle=0;fontColor=#5A6C86;" parent="ex7RakcuXzD5NBLmSYM6-1" vertex="1">
          <mxGeometry x="578.25" y="536" width="111.5" height="119" as="geometry" />
        </mxCell>
        <mxCell id="y1v1cGtarTLoeY6rKac5-2" value="&lt;font color=&quot;#000000&quot;&gt;grpc&lt;/font&gt;" style="text;html=1;align=center;verticalAlign=middle;resizable=0;points=[];autosize=1;fontColor=#FF0000;" parent="ex7RakcuXzD5NBLmSYM6-1" vertex="1">
          <mxGeometry x="583" y="488.02" width="40" height="20" as="geometry" />
        </mxCell>
        <mxCell id="wakNf10nGRk27MYZ7-zU-0" value="DMP数据" style="text;html=1;align=center;verticalAlign=middle;resizable=0;points=[];autosize=1;" parent="ex7RakcuXzD5NBLmSYM6-1" vertex="1">
          <mxGeometry x="520" y="452" width="61" height="18" as="geometry" />
        </mxCell>
        <mxCell id="OzCCPrfzCYr-SYjiB2YY-0" value="库存/曝光等数据" style="text;html=1;align=center;verticalAlign=middle;resizable=0;points=[];autosize=1;" parent="ex7RakcuXzD5NBLmSYM6-1" vertex="1">
          <mxGeometry x="161" y="576" width="97" height="18" as="geometry" />
        </mxCell>
        <mxCell id="OzCCPrfzCYr-SYjiB2YY-1" value="转化成本" style="text;html=1;align=center;verticalAlign=middle;resizable=0;points=[];autosize=1;" parent="ex7RakcuXzD5NBLmSYM6-1" vertex="1">
          <mxGeometry x="168" y="518" width="58" height="18" as="geometry" />
        </mxCell>
        <mxCell id="eCoRuN3HSpgPjJ0g8jlj-0" value="" style="endArrow=classic;html=1;exitX=0.904;exitY=0;exitDx=0;exitDy=0;exitPerimeter=0;" parent="ex7RakcuXzD5NBLmSYM6-1" edge="1">
          <mxGeometry width="50" height="50" relative="1" as="geometry">
            <mxPoint x="385.48" y="544" as="sourcePoint" />
            <mxPoint x="385" y="451" as="targetPoint" />
          </mxGeometry>
        </mxCell>
      </root>
    </mxGraphModel>
  </diagram>
  <diagram id="Owk3Vu_PnAQUC3PzOkkP" name="引擎边界图">
    <mxGraphModel dx="1697" dy="949" grid="0" gridSize="10" guides="1" tooltips="1" connect="1" arrows="1" fold="1" page="1" pageScale="1" pageWidth="827" pageHeight="1169" math="0" shadow="0">
      <root>
        <mxCell id="h6IWYP06IDURY30kxy-j-0" />
        <mxCell id="h6IWYP06IDURY30kxy-j-1" parent="h6IWYP06IDURY30kxy-j-0" />
        <mxCell id="Y8HdpzoGqDVjsxY-gwsb-2" value="服务网关" style="text;html=1;resizable=0;autosize=1;align=center;verticalAlign=middle;points=[];fillColor=none;strokeColor=none;rounded=0;" parent="h6IWYP06IDURY30kxy-j-1" vertex="1">
          <mxGeometry x="50" y="33" width="60" height="20" as="geometry" />
        </mxCell>
        <mxCell id="Y8HdpzoGqDVjsxY-gwsb-3" value="" style="outlineConnect=0;fontColor=#232F3E;gradientColor=#F78E04;gradientDirection=north;fillColor=#D05C17;strokeColor=#ffffff;dashed=0;verticalLabelPosition=bottom;verticalAlign=top;align=center;html=1;fontSize=12;fontStyle=0;aspect=fixed;shape=mxgraph.aws4.resourceIcon;resIcon=mxgraph.aws4.eks;container=0;" parent="h6IWYP06IDURY30kxy-j-1" vertex="1">
          <mxGeometry x="340" y="358" width="60" height="60" as="geometry" />
        </mxCell>
        <mxCell id="Y8HdpzoGqDVjsxY-gwsb-4" value="" style="outlineConnect=0;fontColor=#232F3E;gradientColor=#4D72F3;gradientDirection=north;fillColor=#3334B9;strokeColor=#ffffff;dashed=0;verticalLabelPosition=bottom;verticalAlign=top;align=center;html=1;fontSize=12;fontStyle=0;aspect=fixed;shape=mxgraph.aws4.resourceIcon;resIcon=mxgraph.aws4.timestream;labelBackgroundColor=#ffffff;container=0;" parent="h6IWYP06IDURY30kxy-j-1" vertex="1">
          <mxGeometry x="722" y="380" width="83" height="83" as="geometry" />
        </mxCell>
        <mxCell id="Y8HdpzoGqDVjsxY-gwsb-5" value="" style="outlineConnect=0;fontColor=#232F3E;gradientDirection=north;strokeColor=#ffffff;dashed=0;verticalLabelPosition=bottom;verticalAlign=top;align=center;html=1;fontSize=12;fontStyle=0;aspect=fixed;shape=mxgraph.aws4.resourceIcon;resIcon=mxgraph.aws4.support;labelBackgroundColor=#ffffff;fillColor=#00994D;container=0;" parent="h6IWYP06IDURY30kxy-j-1" vertex="1">
          <mxGeometry x="10.75" y="379" width="90" height="90" as="geometry" />
        </mxCell>
        <mxCell id="Y8HdpzoGqDVjsxY-gwsb-6" value="" style="outlineConnect=0;fontColor=#232F3E;gradientColor=none;fillColor=#116D5B;strokeColor=none;dashed=0;verticalLabelPosition=bottom;verticalAlign=top;align=center;html=1;fontSize=12;fontStyle=0;aspect=fixed;shape=mxgraph.aws4.agent2;labelBackgroundColor=#ffffff;" parent="h6IWYP06IDURY30kxy-j-1" vertex="1">
          <mxGeometry x="585" y="448" width="40" height="40" as="geometry" />
        </mxCell>
        <mxCell id="Y8HdpzoGqDVjsxY-gwsb-7" value="" style="edgeStyle=orthogonalEdgeStyle;shape=flexArrow;rounded=1;orthogonalLoop=1;jettySize=auto;html=1;endWidth=9.777777777777779;endSize=3.8866666666666667;width=5.333333333333333;exitX=0.989;exitY=0.4;exitDx=0;exitDy=0;exitPerimeter=0;" parent="h6IWYP06IDURY30kxy-j-1" source="Y8HdpzoGqDVjsxY-gwsb-22" edge="1">
          <mxGeometry relative="1" as="geometry">
            <mxPoint x="658" y="389" as="sourcePoint" />
            <mxPoint x="701" y="389" as="targetPoint" />
          </mxGeometry>
        </mxCell>
        <mxCell id="Y8HdpzoGqDVjsxY-gwsb-8" value="" style="fillColor=none;strokeColor=#5A6C86;dashed=1;verticalAlign=top;fontStyle=0;fontColor=#5A6C86;labelBackgroundColor=#ffffff;" parent="h6IWYP06IDURY30kxy-j-1" vertex="1">
          <mxGeometry x="4" y="360" width="103" height="129" as="geometry" />
        </mxCell>
        <mxCell id="Y8HdpzoGqDVjsxY-gwsb-9" value="" style="edgeStyle=orthogonalEdgeStyle;shape=flexArrow;rounded=1;orthogonalLoop=1;jettySize=auto;html=1;width=5.333333333333333;endSize=5.333333333333333;endWidth=8.444444444444445;" parent="h6IWYP06IDURY30kxy-j-1" edge="1">
          <mxGeometry relative="1" as="geometry">
            <mxPoint x="240" y="429" as="sourcePoint" />
            <mxPoint x="326.5" y="429" as="targetPoint" />
          </mxGeometry>
        </mxCell>
        <mxCell id="Y8HdpzoGqDVjsxY-gwsb-10" value="" style="outlineConnect=0;fontColor=#232F3E;gradientColor=none;fillColor=#3334B9;strokeColor=none;dashed=0;verticalLabelPosition=bottom;verticalAlign=top;align=center;html=1;fontSize=12;fontStyle=0;aspect=fixed;pointerEvents=1;shape=mxgraph.aws4.cache_node;labelBackgroundColor=#ffffff;" parent="h6IWYP06IDURY30kxy-j-1" vertex="1">
          <mxGeometry x="257.5" y="649.5" width="43" height="43" as="geometry" />
        </mxCell>
        <mxCell id="Y8HdpzoGqDVjsxY-gwsb-11" value="广告平台" style="text;html=1;align=center;verticalAlign=middle;resizable=0;points=[];autosize=1;" parent="h6IWYP06IDURY30kxy-j-1" vertex="1">
          <mxGeometry x="28" y="359" width="60" height="20" as="geometry" />
        </mxCell>
        <mxCell id="Y8HdpzoGqDVjsxY-gwsb-12" value="策略" style="text;html=1;align=center;verticalAlign=middle;resizable=0;points=[];autosize=1;" parent="h6IWYP06IDURY30kxy-j-1" vertex="1">
          <mxGeometry x="138" y="331" width="40" height="20" as="geometry" />
        </mxCell>
        <mxCell id="Y8HdpzoGqDVjsxY-gwsb-13" value="订单" style="text;html=1;align=center;verticalAlign=middle;resizable=0;points=[];autosize=1;" parent="h6IWYP06IDURY30kxy-j-1" vertex="1">
          <mxGeometry x="137" y="347" width="40" height="20" as="geometry" />
        </mxCell>
        <mxCell id="Y8HdpzoGqDVjsxY-gwsb-14" value="素材" style="text;html=1;align=center;verticalAlign=middle;resizable=0;points=[];autosize=1;" parent="h6IWYP06IDURY30kxy-j-1" vertex="1">
          <mxGeometry x="137" y="371" width="40" height="20" as="geometry" />
        </mxCell>
        <mxCell id="Y8HdpzoGqDVjsxY-gwsb-15" value="广告位" style="text;html=1;align=center;verticalAlign=middle;resizable=0;points=[];autosize=1;" parent="h6IWYP06IDURY30kxy-j-1" vertex="1">
          <mxGeometry x="132" y="391" width="50" height="20" as="geometry" />
        </mxCell>
        <mxCell id="Y8HdpzoGqDVjsxY-gwsb-17" value="" style="outlineConnect=0;fontColor=#232F3E;gradientDirection=north;strokeColor=#ffffff;dashed=0;verticalLabelPosition=bottom;verticalAlign=top;align=center;html=1;fontSize=12;fontStyle=0;aspect=fixed;shape=mxgraph.aws4.resourceIcon;resIcon=mxgraph.aws4.compute;labelBackgroundColor=#ffffff;fillColor=#CC0066;container=0;" parent="h6IWYP06IDURY30kxy-j-1" vertex="1">
          <mxGeometry x="362.5" y="763" width="81" height="81" as="geometry" />
        </mxCell>
        <mxCell id="Y8HdpzoGqDVjsxY-gwsb-18" value="" style="outlineConnect=0;fontColor=#232F3E;gradientColor=#F54749;gradientDirection=north;fillColor=#C7131F;strokeColor=#ffffff;dashed=0;verticalLabelPosition=bottom;verticalAlign=top;align=center;html=1;fontSize=12;fontStyle=0;aspect=fixed;shape=mxgraph.aws4.resourceIcon;resIcon=mxgraph.aws4.appsync;" parent="h6IWYP06IDURY30kxy-j-1" vertex="1">
          <mxGeometry x="39" y="199" width="80" height="80" as="geometry" />
        </mxCell>
        <mxCell id="Y8HdpzoGqDVjsxY-gwsb-19" style="edgeStyle=orthogonalEdgeStyle;rounded=1;orthogonalLoop=1;jettySize=auto;html=1;exitX=1;exitY=0.5;exitDx=0;exitDy=0;" parent="h6IWYP06IDURY30kxy-j-1" source="1tE7cGEqM_D9hy70mIV0-2" edge="1">
          <mxGeometry relative="1" as="geometry">
            <mxPoint x="81" y="277" as="sourcePoint" />
            <mxPoint x="328" y="328" as="targetPoint" />
            <Array as="points">
              <mxPoint x="142" y="239" />
              <mxPoint x="191" y="239" />
              <mxPoint x="191" y="328" />
            </Array>
          </mxGeometry>
        </mxCell>
        <mxCell id="Y8HdpzoGqDVjsxY-gwsb-20" value="" style="fillColor=none;strokeColor=#5A6C86;dashed=1;verticalAlign=top;fontStyle=0;fontColor=#5A6C86;labelBackgroundColor=#ffffff;" parent="h6IWYP06IDURY30kxy-j-1" vertex="1">
          <mxGeometry x="178" y="332" width="62" height="177" as="geometry" />
        </mxCell>
        <mxCell id="Y8HdpzoGqDVjsxY-gwsb-21" value="" style="outlineConnect=0;fontColor=#232F3E;gradientColor=none;strokeColor=#ffffff;fillColor=#232F3E;dashed=0;verticalLabelPosition=middle;verticalAlign=bottom;align=center;html=1;whiteSpace=wrap;fontSize=10;fontStyle=1;spacing=3;shape=mxgraph.aws4.productIcon;prIcon=mxgraph.aws4.elastic_file_system;labelBackgroundColor=#ffffff;" parent="h6IWYP06IDURY30kxy-j-1" vertex="1">
          <mxGeometry x="190" y="374.09" width="40" height="41" as="geometry" />
        </mxCell>
        <mxCell id="Y8HdpzoGqDVjsxY-gwsb-22" value="" style="fillColor=none;strokeColor=#5A6C86;dashed=1;verticalAlign=top;fontStyle=0;fontColor=#5A6C86;labelBackgroundColor=#ffffff;container=0;" parent="h6IWYP06IDURY30kxy-j-1" vertex="1">
          <mxGeometry x="558" y="309" width="90" height="200" as="geometry" />
        </mxCell>
        <mxCell id="Y8HdpzoGqDVjsxY-gwsb-23" value="云盘" style="text;html=1;align=center;verticalAlign=middle;resizable=0;points=[];autosize=1;" parent="h6IWYP06IDURY30kxy-j-1" vertex="1">
          <mxGeometry x="188" y="352.09" width="42" height="26" as="geometry" />
        </mxCell>
        <mxCell id="Y8HdpzoGqDVjsxY-gwsb-24" value="" style="outlineConnect=0;fontColor=#232F3E;gradientColor=none;fillColor=#3334B9;strokeColor=none;dashed=0;verticalLabelPosition=bottom;verticalAlign=top;align=center;html=1;fontSize=12;fontStyle=0;aspect=fixed;pointerEvents=1;shape=mxgraph.aws4.rds_mysql_instance;labelBackgroundColor=#ffffff;" parent="h6IWYP06IDURY30kxy-j-1" vertex="1">
          <mxGeometry x="192" y="455.09" width="34.91" height="34.91" as="geometry" />
        </mxCell>
        <mxCell id="Y8HdpzoGqDVjsxY-gwsb-25" value="Mysql" style="text;html=1;align=center;verticalAlign=middle;resizable=0;points=[];autosize=1;" parent="h6IWYP06IDURY30kxy-j-1" vertex="1">
          <mxGeometry x="182" y="434.09" width="50" height="20" as="geometry" />
        </mxCell>
        <mxCell id="Y8HdpzoGqDVjsxY-gwsb-26" value="" style="edgeStyle=orthogonalEdgeStyle;shape=flexArrow;rounded=1;orthogonalLoop=1;jettySize=auto;html=1;width=5.333333333333333;endSize=5.333333333333333;endWidth=8.444444444444445;" parent="h6IWYP06IDURY30kxy-j-1" edge="1">
          <mxGeometry relative="1" as="geometry">
            <mxPoint x="106.25" y="428" as="sourcePoint" />
            <mxPoint x="177" y="428" as="targetPoint" />
          </mxGeometry>
        </mxCell>
        <mxCell id="Y8HdpzoGqDVjsxY-gwsb-27" value="联盟广告位&lt;br&gt;策略" style="text;html=1;align=center;verticalAlign=middle;resizable=0;points=[];autosize=1;" parent="h6IWYP06IDURY30kxy-j-1" vertex="1">
          <mxGeometry x="103" y="448" width="80" height="30" as="geometry" />
        </mxCell>
        <mxCell id="Y8HdpzoGqDVjsxY-gwsb-29" value="HDFS" style="text;html=1;align=center;verticalAlign=middle;resizable=0;points=[];autosize=1;" parent="h6IWYP06IDURY30kxy-j-1" vertex="1">
          <mxGeometry x="577" y="336" width="50" height="20" as="geometry" />
        </mxCell>
        <mxCell id="Y8HdpzoGqDVjsxY-gwsb-30" value="Kafka" style="text;html=1;align=center;verticalAlign=middle;resizable=0;points=[];autosize=1;" parent="h6IWYP06IDURY30kxy-j-1" vertex="1">
          <mxGeometry x="578" y="424" width="50" height="20" as="geometry" />
        </mxCell>
        <mxCell id="Y8HdpzoGqDVjsxY-gwsb-31" value="" style="edgeStyle=orthogonalEdgeStyle;shape=flexArrow;rounded=1;orthogonalLoop=1;jettySize=auto;html=1;endWidth=9.777777777777779;endSize=3.8866666666666667;width=5.333333333333333;" parent="h6IWYP06IDURY30kxy-j-1" edge="1">
          <mxGeometry relative="1" as="geometry">
            <mxPoint x="480" y="383" as="sourcePoint" />
            <mxPoint x="555" y="383" as="targetPoint" />
            <Array as="points">
              <mxPoint x="522" y="383" />
              <mxPoint x="522" y="383" />
            </Array>
          </mxGeometry>
        </mxCell>
        <mxCell id="Y8HdpzoGqDVjsxY-gwsb-32" value="" style="edgeStyle=orthogonalEdgeStyle;rounded=0;orthogonalLoop=1;jettySize=auto;html=1;exitX=1;exitY=0.75;exitDx=0;exitDy=0;" parent="h6IWYP06IDURY30kxy-j-1" edge="1">
          <mxGeometry relative="1" as="geometry">
            <mxPoint x="649" y="454.0899999999999" as="sourcePoint" />
            <mxPoint x="705" y="454" as="targetPoint" />
            <Array as="points">
              <mxPoint x="695" y="454" />
              <mxPoint x="695" y="454" />
            </Array>
          </mxGeometry>
        </mxCell>
        <mxCell id="Y8HdpzoGqDVjsxY-gwsb-33" value="库存，计费&lt;br&gt;日志" style="text;html=1;align=center;verticalAlign=middle;resizable=0;points=[];autosize=1;" parent="h6IWYP06IDURY30kxy-j-1" vertex="1">
          <mxGeometry x="475.25" y="344.09" width="80" height="30" as="geometry" />
        </mxCell>
        <mxCell id="Y8HdpzoGqDVjsxY-gwsb-35" value="debug，&lt;br&gt;计费日志" style="text;html=1;align=center;verticalAlign=middle;resizable=0;points=[];autosize=1;" parent="h6IWYP06IDURY30kxy-j-1" vertex="1">
          <mxGeometry x="485.25" y="439.00000000000006" width="60" height="30" as="geometry" />
        </mxCell>
        <mxCell id="Y8HdpzoGqDVjsxY-gwsb-36" value="广告算法" style="fillColor=none;strokeColor=#5A6C86;dashed=1;verticalAlign=top;fontStyle=0;fontColor=#5A6C86;labelBackgroundColor=#ffffff;container=0;" parent="h6IWYP06IDURY30kxy-j-1" vertex="1">
          <mxGeometry x="297.63" y="739" width="210" height="118" as="geometry" />
        </mxCell>
        <mxCell id="Y8HdpzoGqDVjsxY-gwsb-37" value="广告数据" style="fillColor=none;strokeColor=#5A6C86;dashed=1;verticalAlign=top;fontStyle=0;fontColor=#5A6C86;labelBackgroundColor=#ffffff;container=0;" parent="h6IWYP06IDURY30kxy-j-1" vertex="1">
          <mxGeometry x="703.5" y="355.09000000000003" width="120" height="125" as="geometry" />
        </mxCell>
        <mxCell id="Y8HdpzoGqDVjsxY-gwsb-38" value="redis 奇胜&lt;br&gt;曝光数据&lt;br&gt;rank离线算法因子" style="text;html=1;align=center;verticalAlign=middle;resizable=0;points=[];autosize=1;" parent="h6IWYP06IDURY30kxy-j-1" vertex="1">
          <mxGeometry x="218" y="599.5" width="110" height="50" as="geometry" />
        </mxCell>
        <mxCell id="Y8HdpzoGqDVjsxY-gwsb-39" value="" style="outlineConnect=0;fontColor=#232F3E;gradientColor=none;fillColor=#3334B9;strokeColor=none;dashed=0;verticalLabelPosition=bottom;verticalAlign=top;align=center;html=1;fontSize=12;fontStyle=0;aspect=fixed;pointerEvents=1;shape=mxgraph.aws4.cache_node;labelBackgroundColor=#ffffff;" parent="h6IWYP06IDURY30kxy-j-1" vertex="1">
          <mxGeometry x="343" y="649.5" width="43" height="43" as="geometry" />
        </mxCell>
        <mxCell id="Y8HdpzoGqDVjsxY-gwsb-40" value="couchbase&lt;br&gt;人群包&lt;br&gt;特征信息&lt;br&gt;" style="text;html=1;align=center;verticalAlign=middle;resizable=0;points=[];autosize=1;" parent="h6IWYP06IDURY30kxy-j-1" vertex="1">
          <mxGeometry x="331.5" y="599.5" width="70" height="50" as="geometry" />
        </mxCell>
        <mxCell id="Y8HdpzoGqDVjsxY-gwsb-41" value="hikv&lt;br&gt;人群包&lt;br&gt;特征信息" style="text;html=1;align=center;verticalAlign=middle;resizable=0;points=[];autosize=1;" parent="h6IWYP06IDURY30kxy-j-1" vertex="1">
          <mxGeometry x="412" y="599.5" width="60" height="50" as="geometry" />
        </mxCell>
        <mxCell id="Y8HdpzoGqDVjsxY-gwsb-42" value="" style="fillColor=none;strokeColor=#5A6C86;dashed=1;verticalAlign=top;fontStyle=0;fontColor=#5A6C86;labelBackgroundColor=#ffffff;container=0;" parent="h6IWYP06IDURY30kxy-j-1" vertex="1">
          <mxGeometry x="219.26" y="588" width="366.75" height="119" as="geometry" />
        </mxCell>
        <mxCell id="Y8HdpzoGqDVjsxY-gwsb-43" value="" style="edgeStyle=orthogonalEdgeStyle;rounded=0;orthogonalLoop=1;jettySize=auto;html=1;" parent="h6IWYP06IDURY30kxy-j-1" edge="1">
          <mxGeometry relative="1" as="geometry">
            <mxPoint x="490" y="478" as="sourcePoint" />
            <mxPoint x="555.25" y="478" as="targetPoint" />
            <Array as="points">
              <mxPoint x="545.25" y="478" />
              <mxPoint x="545.25" y="478" />
            </Array>
          </mxGeometry>
        </mxCell>
        <mxCell id="Y8HdpzoGqDVjsxY-gwsb-44" value="" style="outlineConnect=0;fontColor=#232F3E;gradientColor=#F78E04;gradientDirection=north;fillColor=#D05C17;strokeColor=#ffffff;dashed=0;verticalLabelPosition=bottom;verticalAlign=top;align=center;html=1;fontSize=12;fontStyle=0;aspect=fixed;shape=mxgraph.aws4.resourceIcon;resIcon=mxgraph.aws4.eks;container=0;" parent="h6IWYP06IDURY30kxy-j-1" vertex="1">
          <mxGeometry x="340" y="446" width="60" height="60" as="geometry" />
        </mxCell>
        <mxCell id="Y8HdpzoGqDVjsxY-gwsb-45" value="" style="outlineConnect=0;fontColor=#232F3E;gradientColor=#F78E04;gradientDirection=north;fillColor=#D05C17;strokeColor=#ffffff;dashed=0;verticalLabelPosition=bottom;verticalAlign=top;align=center;html=1;fontSize=12;fontStyle=0;aspect=fixed;shape=mxgraph.aws4.resourceIcon;resIcon=mxgraph.aws4.eks;container=0;" parent="h6IWYP06IDURY30kxy-j-1" vertex="1">
          <mxGeometry x="410" y="359" width="60" height="60" as="geometry" />
        </mxCell>
        <mxCell id="Y8HdpzoGqDVjsxY-gwsb-46" value="" style="outlineConnect=0;fontColor=#232F3E;gradientColor=#F78E04;gradientDirection=north;fillColor=#D05C17;strokeColor=#ffffff;dashed=0;verticalLabelPosition=bottom;verticalAlign=top;align=center;html=1;fontSize=12;fontStyle=0;aspect=fixed;shape=mxgraph.aws4.resourceIcon;resIcon=mxgraph.aws4.eks;container=0;" parent="h6IWYP06IDURY30kxy-j-1" vertex="1">
          <mxGeometry x="413.5" y="444" width="60" height="60" as="geometry" />
        </mxCell>
        <mxCell id="Y8HdpzoGqDVjsxY-gwsb-47" value="奇胜" style="text;html=1;align=center;verticalAlign=middle;resizable=0;points=[];autosize=1;" parent="h6IWYP06IDURY30kxy-j-1" vertex="1">
          <mxGeometry x="345" y="332" width="40" height="20" as="geometry" />
        </mxCell>
        <mxCell id="Y8HdpzoGqDVjsxY-gwsb-48" value="奇麟" style="text;html=1;align=center;verticalAlign=middle;resizable=0;points=[];autosize=1;" parent="h6IWYP06IDURY30kxy-j-1" vertex="1">
          <mxGeometry x="414" y="335.09" width="40" height="20" as="geometry" />
        </mxCell>
        <mxCell id="Y8HdpzoGqDVjsxY-gwsb-49" value="ADX" style="text;html=1;align=center;verticalAlign=middle;resizable=0;points=[];autosize=1;" parent="h6IWYP06IDURY30kxy-j-1" vertex="1">
          <mxGeometry x="345" y="426" width="40" height="20" as="geometry" />
        </mxCell>
        <mxCell id="Y8HdpzoGqDVjsxY-gwsb-50" value="计费" style="text;html=1;align=center;verticalAlign=middle;resizable=0;points=[];autosize=1;" parent="h6IWYP06IDURY30kxy-j-1" vertex="1">
          <mxGeometry x="420" y="426" width="40" height="20" as="geometry" />
        </mxCell>
        <mxCell id="MZ6ozS-OSHm_cB-Km0Ai-1" style="edgeStyle=none;rounded=0;orthogonalLoop=1;jettySize=auto;html=1;fontColor=#FF0000;" parent="h6IWYP06IDURY30kxy-j-1" source="Y8HdpzoGqDVjsxY-gwsb-51" edge="1">
          <mxGeometry relative="1" as="geometry">
            <mxPoint x="403" y="585" as="targetPoint" />
          </mxGeometry>
        </mxCell>
        <mxCell id="MZ6ozS-OSHm_cB-Km0Ai-2" style="edgeStyle=none;rounded=0;orthogonalLoop=1;jettySize=auto;html=1;exitX=0.25;exitY=1;exitDx=0;exitDy=0;fontColor=#FF0000;entryX=0.58;entryY=-0.016;entryDx=0;entryDy=0;entryPerimeter=0;" parent="h6IWYP06IDURY30kxy-j-1" source="Y8HdpzoGqDVjsxY-gwsb-51" target="Y8HdpzoGqDVjsxY-gwsb-53" edge="1">
          <mxGeometry relative="1" as="geometry">
            <mxPoint x="150" y="600" as="targetPoint" />
          </mxGeometry>
        </mxCell>
        <mxCell id="Y8HdpzoGqDVjsxY-gwsb-51" value="广告后台" style="fillColor=none;strokeColor=#5A6C86;dashed=1;verticalAlign=top;fontStyle=1;labelBackgroundColor=#ffffff;container=0;fontColor=#FF0000;" parent="h6IWYP06IDURY30kxy-j-1" vertex="1">
          <mxGeometry x="331.5" y="301" width="150" height="238" as="geometry" />
        </mxCell>
        <mxCell id="Y8HdpzoGqDVjsxY-gwsb-53" value="TensorFlow&#xa;深度推理&#xa;AI中插点位&#xa;" style="fillColor=none;strokeColor=#5A6C86;dashed=1;verticalAlign=top;fontStyle=0;fontColor=#5A6C86;labelBackgroundColor=#ffffff;container=0;" parent="h6IWYP06IDURY30kxy-j-1" vertex="1">
          <mxGeometry x="93" y="585" width="100" height="122" as="geometry" />
        </mxCell>
        <mxCell id="Y8HdpzoGqDVjsxY-gwsb-55" value="模型配置&#xa;scp拉取" style="fillColor=none;strokeColor=#5A6C86;dashed=1;verticalAlign=top;fontStyle=0;fontColor=#5A6C86;labelBackgroundColor=#ffffff;container=0;" parent="h6IWYP06IDURY30kxy-j-1" vertex="1">
          <mxGeometry x="600" y="590" width="90" height="117" as="geometry" />
        </mxCell>
        <mxCell id="Y8HdpzoGqDVjsxY-gwsb-56" value="" style="edgeStyle=orthogonalEdgeStyle;shape=flexArrow;rounded=1;orthogonalLoop=1;jettySize=auto;html=1;width=5.333333333333333;endSize=3.5533333333333332;endWidth=9.777777777777779;entryX=0.687;entryY=1.016;entryDx=0;entryDy=0;entryPerimeter=0;" parent="h6IWYP06IDURY30kxy-j-1" edge="1">
          <mxGeometry relative="1" as="geometry">
            <mxPoint x="643" y="587" as="sourcePoint" />
            <mxPoint x="459.04999999999995" y="541.0640000000001" as="targetPoint" />
            <Array as="points">
              <mxPoint x="643" y="581" />
              <mxPoint x="643" y="562" />
              <mxPoint x="459" y="562" />
            </Array>
          </mxGeometry>
        </mxCell>
        <mxCell id="Y8HdpzoGqDVjsxY-gwsb-57" value="基础服务" style="fillColor=none;strokeColor=#5A6C86;dashed=1;verticalAlign=top;fontStyle=0;fontColor=#5A6C86;labelBackgroundColor=#ffffff;container=0;" parent="h6IWYP06IDURY30kxy-j-1" vertex="1">
          <mxGeometry x="233" y="28" width="357" height="146" as="geometry" />
        </mxCell>
        <mxCell id="Y8HdpzoGqDVjsxY-gwsb-58" value="VIP鉴权" style="text;html=1;align=center;verticalAlign=middle;resizable=0;points=[];autosize=1;" parent="h6IWYP06IDURY30kxy-j-1" vertex="1">
          <mxGeometry x="247.07" y="68" width="60" height="20" as="geometry" />
        </mxCell>
        <mxCell id="Y8HdpzoGqDVjsxY-gwsb-59" value="频控，去重，负反馈" style="text;html=1;align=center;verticalAlign=middle;resizable=0;points=[];autosize=1;" parent="h6IWYP06IDURY30kxy-j-1" vertex="1">
          <mxGeometry x="323" y="70.5" width="126" height="26" as="geometry" />
        </mxCell>
        <mxCell id="Y8HdpzoGqDVjsxY-gwsb-60" value="" style="outlineConnect=0;fontColor=#232F3E;gradientColor=#4D72F3;gradientDirection=north;fillColor=#3334B9;strokeColor=#ffffff;dashed=0;verticalLabelPosition=bottom;verticalAlign=top;align=center;html=1;fontSize=12;fontStyle=0;aspect=fixed;shape=mxgraph.aws4.resourceIcon;resIcon=mxgraph.aws4.database;" parent="h6IWYP06IDURY30kxy-j-1" vertex="1">
          <mxGeometry x="350" y="98" width="66" height="66" as="geometry" />
        </mxCell>
        <mxCell id="Y8HdpzoGqDVjsxY-gwsb-61" value="视频数据" style="text;html=1;align=center;verticalAlign=middle;resizable=0;points=[];autosize=1;" parent="h6IWYP06IDURY30kxy-j-1" vertex="1">
          <mxGeometry x="454" y="70.5" width="66" height="26" as="geometry" />
        </mxCell>
        <mxCell id="Y8HdpzoGqDVjsxY-gwsb-62" style="edgeStyle=orthogonalEdgeStyle;rounded=1;orthogonalLoop=1;jettySize=auto;html=1;entryX=0.013;entryY=0.1;entryDx=0;entryDy=0;entryPerimeter=0;exitX=0.12;exitY=1.027;exitDx=0;exitDy=0;exitPerimeter=0;" parent="h6IWYP06IDURY30kxy-j-1" source="Y8HdpzoGqDVjsxY-gwsb-57" edge="1">
          <mxGeometry relative="1" as="geometry">
            <mxPoint x="278" y="188" as="sourcePoint" />
            <mxPoint x="329.95000000000005" y="312" as="targetPoint" />
            <Array as="points">
              <mxPoint x="278" y="178" />
              <mxPoint x="278" y="312" />
            </Array>
          </mxGeometry>
        </mxCell>
        <mxCell id="Y8HdpzoGqDVjsxY-gwsb-63" value="http" style="text;html=1;resizable=0;autosize=1;align=center;verticalAlign=middle;points=[];fillColor=none;strokeColor=none;rounded=0;" parent="h6IWYP06IDURY30kxy-j-1" vertex="1">
          <mxGeometry x="241" y="229" width="40" height="20" as="geometry" />
        </mxCell>
        <mxCell id="Y8HdpzoGqDVjsxY-gwsb-64" style="edgeStyle=orthogonalEdgeStyle;rounded=1;orthogonalLoop=1;jettySize=auto;html=1;" parent="h6IWYP06IDURY30kxy-j-1" edge="1">
          <mxGeometry relative="1" as="geometry">
            <mxPoint x="390" y="183" as="sourcePoint" />
            <mxPoint x="390" y="295" as="targetPoint" />
            <Array as="points">
              <mxPoint x="390" y="189" />
              <mxPoint x="390" y="331" />
            </Array>
          </mxGeometry>
        </mxCell>
        <mxCell id="Y8HdpzoGqDVjsxY-gwsb-65" value="redis" style="text;html=1;resizable=0;autosize=1;align=center;verticalAlign=middle;points=[];fillColor=none;strokeColor=none;rounded=0;" parent="h6IWYP06IDURY30kxy-j-1" vertex="1">
          <mxGeometry x="343" y="227" width="40" height="20" as="geometry" />
        </mxCell>
        <mxCell id="Y8HdpzoGqDVjsxY-gwsb-68" value="" style="outlineConnect=0;fontColor=#232F3E;gradientColor=none;fillColor=#116D5B;strokeColor=none;dashed=0;verticalLabelPosition=bottom;verticalAlign=top;align=center;html=1;fontSize=12;fontStyle=0;aspect=fixed;shape=mxgraph.aws4.agent2;labelBackgroundColor=#ffffff;" parent="h6IWYP06IDURY30kxy-j-1" vertex="1">
          <mxGeometry x="457.5" y="216" width="40" height="40" as="geometry" />
        </mxCell>
        <mxCell id="Y8HdpzoGqDVjsxY-gwsb-69" value="rocketmq" style="text;html=1;resizable=0;autosize=1;align=center;verticalAlign=middle;points=[];fillColor=none;strokeColor=none;rounded=0;" parent="h6IWYP06IDURY30kxy-j-1" vertex="1">
          <mxGeometry x="497.25" y="219" width="60" height="20" as="geometry" />
        </mxCell>
        <mxCell id="Y8HdpzoGqDVjsxY-gwsb-70" style="edgeStyle=orthogonalEdgeStyle;rounded=1;orthogonalLoop=1;jettySize=auto;html=1;" parent="h6IWYP06IDURY30kxy-j-1" edge="1">
          <mxGeometry relative="1" as="geometry">
            <mxPoint x="476" y="181" as="sourcePoint" />
            <mxPoint x="475.9000000000001" y="213" as="targetPoint" />
            <Array as="points">
              <mxPoint x="476" y="202" />
              <mxPoint x="476" y="202" />
            </Array>
          </mxGeometry>
        </mxCell>
        <mxCell id="Y8HdpzoGqDVjsxY-gwsb-71" value="scylladb&lt;br&gt;联盟uid mapping&lt;br&gt;" style="text;html=1;align=center;verticalAlign=middle;resizable=0;points=[];autosize=1;" parent="h6IWYP06IDURY30kxy-j-1" vertex="1">
          <mxGeometry x="475" y="607" width="107" height="41" as="geometry" />
        </mxCell>
        <mxCell id="Y8HdpzoGqDVjsxY-gwsb-72" value="" style="edgeStyle=orthogonalEdgeStyle;shape=flexArrow;rounded=1;orthogonalLoop=1;jettySize=auto;html=1;width=5.333333333333333;endSize=3.5533333333333332;endWidth=9.777777777777779;" parent="h6IWYP06IDURY30kxy-j-1" edge="1">
          <mxGeometry relative="1" as="geometry">
            <mxPoint x="513" y="798" as="sourcePoint" />
            <mxPoint x="643" y="711" as="targetPoint" />
            <Array as="points">
              <mxPoint x="513" y="798" />
              <mxPoint x="643" y="798" />
            </Array>
          </mxGeometry>
        </mxCell>
        <mxCell id="Y8HdpzoGqDVjsxY-gwsb-76" value="" style="edgeStyle=orthogonalEdgeStyle;shape=flexArrow;rounded=1;orthogonalLoop=1;jettySize=auto;html=1;width=5.333333333333333;endSize=3.5533333333333332;endWidth=9.777777777777779;" parent="h6IWYP06IDURY30kxy-j-1" edge="1">
          <mxGeometry relative="1" as="geometry">
            <mxPoint x="405.5" y="735.5" as="sourcePoint" />
            <mxPoint x="406" y="707" as="targetPoint" />
            <Array as="points">
              <mxPoint x="405.5" y="735" />
            </Array>
          </mxGeometry>
        </mxCell>
        <mxCell id="Y8HdpzoGqDVjsxY-gwsb-77" value="" style="outlineConnect=0;fontColor=#232F3E;gradientColor=none;fillColor=#BC1356;strokeColor=none;dashed=0;verticalLabelPosition=bottom;verticalAlign=top;align=center;html=1;fontSize=12;fontStyle=0;aspect=fixed;pointerEvents=1;shape=mxgraph.aws4.organizations_account;" parent="h6IWYP06IDURY30kxy-j-1" vertex="1">
          <mxGeometry x="246.8" y="99" width="66.41" height="70" as="geometry" />
        </mxCell>
        <mxCell id="Y8HdpzoGqDVjsxY-gwsb-78" value="" style="outlineConnect=0;fontColor=#232F3E;gradientColor=#4AB29A;gradientDirection=north;fillColor=#116D5B;strokeColor=#ffffff;dashed=0;verticalLabelPosition=bottom;verticalAlign=top;align=center;html=1;fontSize=12;fontStyle=0;aspect=fixed;shape=mxgraph.aws4.resourceIcon;resIcon=mxgraph.aws4.deep_learning_amis;" parent="h6IWYP06IDURY30kxy-j-1" vertex="1">
          <mxGeometry x="109" y="633" width="66" height="66" as="geometry" />
        </mxCell>
        <mxCell id="Y8HdpzoGqDVjsxY-gwsb-79" value="" style="edgeStyle=orthogonalEdgeStyle;shape=flexArrow;rounded=1;orthogonalLoop=1;jettySize=auto;html=1;width=5.333333333333333;endSize=3.5533333333333332;endWidth=9.777777777777779;exitX=0.007;exitY=0.432;exitDx=0;exitDy=0;exitPerimeter=0;entryX=0.5;entryY=1;entryDx=0;entryDy=0;" parent="h6IWYP06IDURY30kxy-j-1" edge="1">
          <mxGeometry relative="1" as="geometry">
            <mxPoint x="298.10000000000014" y="792" as="sourcePoint" />
            <mxPoint x="143" y="705" as="targetPoint" />
            <Array as="points">
              <mxPoint x="142" y="792" />
            </Array>
          </mxGeometry>
        </mxCell>
        <mxCell id="Y8HdpzoGqDVjsxY-gwsb-80" value="" style="outlineConnect=0;fontColor=#232F3E;gradientColor=none;fillColor=#116D5B;strokeColor=none;dashed=0;verticalLabelPosition=bottom;verticalAlign=top;align=center;html=1;fontSize=12;fontStyle=0;aspect=fixed;pointerEvents=1;shape=mxgraph.aws4.sagemaker_model;" parent="h6IWYP06IDURY30kxy-j-1" vertex="1">
          <mxGeometry x="620" y="639" width="54" height="54" as="geometry" />
        </mxCell>
        <mxCell id="Y8HdpzoGqDVjsxY-gwsb-81" value="" style="outlineConnect=0;fontColor=#232F3E;gradientColor=#4D72F3;gradientDirection=north;fillColor=#3334B9;strokeColor=#ffffff;dashed=0;verticalLabelPosition=bottom;verticalAlign=top;align=center;html=1;fontSize=12;fontStyle=0;aspect=fixed;shape=mxgraph.aws4.resourceIcon;resIcon=mxgraph.aws4.managed_apache_cassandra_service;" parent="h6IWYP06IDURY30kxy-j-1" vertex="1">
          <mxGeometry x="502.25" y="649.5" width="43" height="43" as="geometry" />
        </mxCell>
        <mxCell id="o5M8Cl3kYu16jbrKOZtN-0" value="" style="edgeStyle=orthogonalEdgeStyle;rounded=0;orthogonalLoop=1;jettySize=auto;html=1;" edge="1" parent="h6IWYP06IDURY30kxy-j-1" source="Y8HdpzoGqDVjsxY-gwsb-82" target="Y8HdpzoGqDVjsxY-gwsb-71">
          <mxGeometry relative="1" as="geometry" />
        </mxCell>
        <mxCell id="Y8HdpzoGqDVjsxY-gwsb-82" value="" style="outlineConnect=0;fontColor=#232F3E;gradientColor=#4D72F3;gradientDirection=north;fillColor=#3334B9;strokeColor=#ffffff;dashed=0;verticalLabelPosition=bottom;verticalAlign=top;align=center;html=1;fontSize=12;fontStyle=0;aspect=fixed;shape=mxgraph.aws4.resourceIcon;resIcon=mxgraph.aws4.managed_apache_cassandra_service;" parent="h6IWYP06IDURY30kxy-j-1" vertex="1">
          <mxGeometry x="422" y="649.5" width="43" height="43" as="geometry" />
        </mxCell>
        <mxCell id="Y8HdpzoGqDVjsxY-gwsb-83" value="" style="outlineConnect=0;fontColor=#232F3E;gradientColor=#4D72F3;gradientDirection=north;fillColor=#3334B9;strokeColor=#ffffff;dashed=0;verticalLabelPosition=bottom;verticalAlign=top;align=center;html=1;fontSize=12;fontStyle=0;aspect=fixed;shape=mxgraph.aws4.resourceIcon;resIcon=mxgraph.aws4.elasticache;" parent="h6IWYP06IDURY30kxy-j-1" vertex="1">
          <mxGeometry x="454" y="96.5" width="69" height="69" as="geometry" />
        </mxCell>
        <mxCell id="Y8HdpzoGqDVjsxY-gwsb-84" style="edgeStyle=orthogonalEdgeStyle;rounded=1;orthogonalLoop=1;jettySize=auto;html=1;" parent="h6IWYP06IDURY30kxy-j-1" edge="1">
          <mxGeometry relative="1" as="geometry">
            <mxPoint x="477" y="262" as="sourcePoint" />
            <mxPoint x="476.9000000000001" y="294" as="targetPoint" />
            <Array as="points">
              <mxPoint x="477" y="283" />
              <mxPoint x="477" y="283" />
            </Array>
          </mxGeometry>
        </mxCell>
        <mxCell id="1tE7cGEqM_D9hy70mIV0-2" value="广告前端" style="fillColor=none;strokeColor=#5A6C86;dashed=1;verticalAlign=top;fontStyle=0;fontColor=#5A6C86;labelBackgroundColor=#ffffff;" parent="h6IWYP06IDURY30kxy-j-1" vertex="1">
          <mxGeometry x="18.5" y="170.75" width="123" height="127.25" as="geometry" />
        </mxCell>
        <mxCell id="1tE7cGEqM_D9hy70mIV0-3" style="edgeStyle=orthogonalEdgeStyle;rounded=1;orthogonalLoop=1;jettySize=auto;html=1;" parent="h6IWYP06IDURY30kxy-j-1" edge="1">
          <mxGeometry relative="1" as="geometry">
            <mxPoint x="79" y="158" as="sourcePoint" />
            <mxPoint x="79" y="167" as="targetPoint" />
            <Array as="points">
              <mxPoint x="79" y="134" />
              <mxPoint x="79" y="276" />
            </Array>
          </mxGeometry>
        </mxCell>
        <mxCell id="4OVVJpOCckq1rD0vhtGG-0" value="" style="outlineConnect=0;fontColor=#232F3E;gradientColor=none;fillColor=#5A30B5;strokeColor=none;dashed=0;verticalLabelPosition=bottom;verticalAlign=top;align=center;html=1;fontSize=12;fontStyle=0;aspect=fixed;pointerEvents=1;shape=mxgraph.aws4.nat_gateway;" parent="h6IWYP06IDURY30kxy-j-1" vertex="1">
          <mxGeometry x="40" y="62" width="78" height="78" as="geometry" />
        </mxCell>
        <mxCell id="rILyymKsNtomNshzyxxA-0" value="" style="outlineConnect=0;fontColor=#232F3E;gradientColor=#60A337;gradientDirection=north;fillColor=#277116;strokeColor=#ffffff;dashed=0;verticalLabelPosition=bottom;verticalAlign=top;align=center;html=1;fontSize=12;fontStyle=0;aspect=fixed;shape=mxgraph.aws4.resourceIcon;resIcon=mxgraph.aws4.elastic_file_system;" parent="h6IWYP06IDURY30kxy-j-1" vertex="1">
          <mxGeometry x="580.75" y="360" width="47.25" height="47.25" as="geometry" />
        </mxCell>
        <mxCell id="MZ6ozS-OSHm_cB-Km0Ai-4" value="&lt;font color=&quot;#000000&quot;&gt;grpc&lt;/font&gt;" style="text;html=1;align=center;verticalAlign=middle;resizable=0;points=[];autosize=1;fontColor=#FF0000;" parent="h6IWYP06IDURY30kxy-j-1" vertex="1">
          <mxGeometry x="211" y="538" width="40" height="20" as="geometry" />
        </mxCell>
        <mxCell id="S4Bbg6EzSoY8UESE3qRM-0" value="http" style="text;html=1;align=center;verticalAlign=middle;resizable=0;points=[];autosize=1;" parent="h6IWYP06IDURY30kxy-j-1" vertex="1">
          <mxGeometry x="191" y="279" width="30" height="18" as="geometry" />
        </mxCell>
        <mxCell id="S4Bbg6EzSoY8UESE3qRM-1" value="file" style="text;html=1;align=center;verticalAlign=middle;resizable=0;points=[];autosize=1;" parent="h6IWYP06IDURY30kxy-j-1" vertex="1">
          <mxGeometry x="178" y="763" width="25" height="18" as="geometry" />
        </mxCell>
        <mxCell id="S4Bbg6EzSoY8UESE3qRM-2" value="file" style="text;html=1;align=center;verticalAlign=middle;resizable=0;points=[];autosize=1;" parent="h6IWYP06IDURY30kxy-j-1" vertex="1">
          <mxGeometry x="562" y="769" width="25" height="18" as="geometry" />
        </mxCell>
      </root>
    </mxGraphModel>
  </diagram>
  <diagram id="AXAwi_nH_NUmuOEEZZJo" name="平台边界图">
    <mxGraphModel dx="1422" dy="822" grid="0" gridSize="10" guides="1" tooltips="1" connect="1" arrows="1" fold="1" page="0" pageScale="1" pageWidth="827" pageHeight="1169" math="0" shadow="0">
      <root>
        <mxCell id="tRflWldESxPaw9c3D1wa-0" />
        <mxCell id="tRflWldESxPaw9c3D1wa-1" parent="tRflWldESxPaw9c3D1wa-0" />
        <mxCell id="1RImVorkh5zTbL47pRpo-45" value="OA" style="fillColor=none;strokeColor=#5A6C86;dashed=1;verticalAlign=top;fontStyle=0;fontColor=#5A6C86;container=0;" parent="tRflWldESxPaw9c3D1wa-1" vertex="1">
          <mxGeometry x="448" y="22" width="92" height="88" as="geometry" />
        </mxCell>
        <mxCell id="1RImVorkh5zTbL47pRpo-48" value="广告前端" style="fillColor=none;strokeColor=#5A6C86;dashed=1;verticalAlign=top;fontStyle=0;fontColor=#5A6C86;labelBackgroundColor=#ffffff;container=0;" parent="tRflWldESxPaw9c3D1wa-1" vertex="1">
          <mxGeometry x="580" y="20" width="90" height="90" as="geometry" />
        </mxCell>
        <mxCell id="1RImVorkh5zTbL47pRpo-1" value="广告平台" style="fillColor=none;strokeColor=#5A6C86;dashed=1;verticalAlign=top;fontStyle=1;labelBackgroundColor=#ffffff;fontColor=#FF0000;" parent="tRflWldESxPaw9c3D1wa-1" vertex="1">
          <mxGeometry x="170" y="433" width="430" height="107" as="geometry" />
        </mxCell>
        <mxCell id="1RImVorkh5zTbL47pRpo-0" value="" style="outlineConnect=0;fontColor=#232F3E;gradientDirection=north;strokeColor=#ffffff;dashed=0;verticalLabelPosition=bottom;verticalAlign=top;align=center;html=1;fontSize=12;fontStyle=0;aspect=fixed;shape=mxgraph.aws4.resourceIcon;resIcon=mxgraph.aws4.support;labelBackgroundColor=#ffffff;fillColor=#00994D;container=0;" parent="tRflWldESxPaw9c3D1wa-1" vertex="1">
          <mxGeometry x="277" y="474" width="46" height="46" as="geometry" />
        </mxCell>
        <mxCell id="1RImVorkh5zTbL47pRpo-2" value="ADX业务服务" style="text;html=1;align=center;verticalAlign=middle;resizable=0;points=[];autosize=1;" parent="tRflWldESxPaw9c3D1wa-1" vertex="1">
          <mxGeometry x="258.82" y="447" width="90" height="20" as="geometry" />
        </mxCell>
        <mxCell id="1RImVorkh5zTbL47pRpo-5" value="" style="outlineConnect=0;fontColor=#232F3E;gradientDirection=north;strokeColor=#ffffff;dashed=0;verticalLabelPosition=bottom;verticalAlign=top;align=center;html=1;fontSize=12;fontStyle=0;aspect=fixed;shape=mxgraph.aws4.resourceIcon;resIcon=mxgraph.aws4.support;labelBackgroundColor=#ffffff;fillColor=#00994D;container=0;" parent="tRflWldESxPaw9c3D1wa-1" vertex="1">
          <mxGeometry x="439" y="472.25" width="46" height="46" as="geometry" />
        </mxCell>
        <mxCell id="1RImVorkh5zTbL47pRpo-6" value="奇胜业务服务" style="text;html=1;align=center;verticalAlign=middle;resizable=0;points=[];autosize=1;" parent="tRflWldESxPaw9c3D1wa-1" vertex="1">
          <mxGeometry x="414" y="444" width="90" height="20" as="geometry" />
        </mxCell>
        <mxCell id="1RImVorkh5zTbL47pRpo-8" value="" style="outlineConnect=0;fontColor=#232F3E;gradientDirection=north;strokeColor=#ffffff;dashed=0;verticalLabelPosition=bottom;verticalAlign=top;align=center;html=1;fontSize=12;fontStyle=0;aspect=fixed;shape=mxgraph.aws4.resourceIcon;resIcon=mxgraph.aws4.support;labelBackgroundColor=#ffffff;fillColor=#00994D;container=0;" parent="tRflWldESxPaw9c3D1wa-1" vertex="1">
          <mxGeometry x="522" y="472.25" width="46" height="46" as="geometry" />
        </mxCell>
        <mxCell id="1RImVorkh5zTbL47pRpo-9" value="奇麟业务服务" style="text;html=1;align=center;verticalAlign=middle;resizable=0;points=[];autosize=1;" parent="tRflWldESxPaw9c3D1wa-1" vertex="1">
          <mxGeometry x="500" y="444" width="90" height="20" as="geometry" />
        </mxCell>
        <mxCell id="1RImVorkh5zTbL47pRpo-11" value="" style="outlineConnect=0;fontColor=#232F3E;gradientColor=#F54749;gradientDirection=north;fillColor=#C7131F;strokeColor=#ffffff;dashed=0;verticalLabelPosition=bottom;verticalAlign=top;align=center;html=1;fontSize=12;fontStyle=0;aspect=fixed;shape=mxgraph.aws4.resourceIcon;resIcon=mxgraph.aws4.appsync;" parent="tRflWldESxPaw9c3D1wa-1" vertex="1">
          <mxGeometry x="465" y="334" width="54" height="54" as="geometry" />
        </mxCell>
        <mxCell id="1RImVorkh5zTbL47pRpo-12" value="Nginx" style="text;html=1;align=center;verticalAlign=middle;resizable=0;points=[];autosize=1;" parent="tRflWldESxPaw9c3D1wa-1" vertex="1">
          <mxGeometry x="465" y="314" width="50" height="20" as="geometry" />
        </mxCell>
        <mxCell id="1RImVorkh5zTbL47pRpo-13" value="" style="aspect=fixed;perimeter=ellipsePerimeter;html=1;align=center;shadow=0;dashed=0;spacingTop=3;image;image=img/lib/active_directory/users.svg;" parent="tRflWldESxPaw9c3D1wa-1" vertex="1">
          <mxGeometry x="383.5" y="162" width="33" height="50" as="geometry" />
        </mxCell>
        <mxCell id="1RImVorkh5zTbL47pRpo-14" value="" style="fillColor=none;strokeColor=#5A6C86;dashed=1;verticalAlign=top;fontStyle=0;fontColor=#5A6C86;labelBackgroundColor=#ffffff;" parent="tRflWldESxPaw9c3D1wa-1" vertex="1">
          <mxGeometry x="736" y="305" width="150" height="495" as="geometry" />
        </mxCell>
        <mxCell id="1RImVorkh5zTbL47pRpo-15" value="MongleDB" style="text;html=1;align=center;verticalAlign=middle;resizable=0;points=[];autosize=1;" parent="tRflWldESxPaw9c3D1wa-1" vertex="1">
          <mxGeometry x="776" y="427" width="70" height="20" as="geometry" />
        </mxCell>
        <mxCell id="1RImVorkh5zTbL47pRpo-16" value="MySQL" style="text;html=1;align=center;verticalAlign=middle;resizable=0;points=[];autosize=1;" parent="tRflWldESxPaw9c3D1wa-1" vertex="1">
          <mxGeometry x="781" y="672" width="60" height="20" as="geometry" />
        </mxCell>
        <mxCell id="1RImVorkh5zTbL47pRpo-17" value="消息队列" style="text;html=1;align=center;verticalAlign=middle;resizable=0;points=[];autosize=1;" parent="tRflWldESxPaw9c3D1wa-1" vertex="1">
          <mxGeometry x="781" y="322" width="60" height="20" as="geometry" />
        </mxCell>
        <mxCell id="1RImVorkh5zTbL47pRpo-18" value="基础服务" style="text;html=1;align=center;verticalAlign=middle;resizable=0;points=[];autosize=1;" parent="tRflWldESxPaw9c3D1wa-1" vertex="1">
          <mxGeometry x="779" y="282" width="60" height="20" as="geometry" />
        </mxCell>
        <mxCell id="1RImVorkh5zTbL47pRpo-19" value="配置类、白名单、&lt;br&gt;推广目标数据" style="text;html=1;align=center;verticalAlign=middle;resizable=0;points=[];autosize=1;" parent="tRflWldESxPaw9c3D1wa-1" vertex="1">
          <mxGeometry x="610" y="462" width="110" height="30" as="geometry" />
        </mxCell>
        <mxCell id="1RImVorkh5zTbL47pRpo-20" value="RESTful API" style="text;html=1;align=center;verticalAlign=middle;resizable=0;points=[];autosize=1;" parent="tRflWldESxPaw9c3D1wa-1" vertex="1">
          <mxGeometry x="474" y="182" width="80" height="20" as="geometry" />
        </mxCell>
        <mxCell id="1RImVorkh5zTbL47pRpo-21" value="" style="fillColor=none;strokeColor=#5A6C86;dashed=1;verticalAlign=top;fontStyle=0;fontColor=#5A6C86;labelBackgroundColor=#ffffff;" parent="tRflWldESxPaw9c3D1wa-1" vertex="1">
          <mxGeometry x="736" y="120" width="150" height="144" as="geometry" />
        </mxCell>
        <mxCell id="1RImVorkh5zTbL47pRpo-22" value="Venus" style="text;html=1;align=center;verticalAlign=middle;resizable=0;points=[];autosize=1;" parent="tRflWldESxPaw9c3D1wa-1" vertex="1">
          <mxGeometry x="786" y="134" width="50" height="20" as="geometry" />
        </mxCell>
        <mxCell id="1RImVorkh5zTbL47pRpo-24" value="采集服务日志" style="text;html=1;align=center;verticalAlign=middle;resizable=0;points=[];autosize=1;" parent="tRflWldESxPaw9c3D1wa-1" vertex="1">
          <mxGeometry x="620" y="197" width="90" height="20" as="geometry" />
        </mxCell>
        <mxCell id="1RImVorkh5zTbL47pRpo-26" value="" style="outlineConnect=0;fontColor=#232F3E;gradientColor=none;strokeColor=#ffffff;fillColor=#232F3E;dashed=0;verticalLabelPosition=middle;verticalAlign=bottom;align=center;html=1;whiteSpace=wrap;fontSize=10;fontStyle=1;spacing=3;shape=mxgraph.aws4.productIcon;prIcon=mxgraph.aws4.elastic_file_system;labelBackgroundColor=#ffffff;" parent="tRflWldESxPaw9c3D1wa-1" vertex="1">
          <mxGeometry x="410" y="579" width="40" height="41" as="geometry" />
        </mxCell>
        <mxCell id="1RImVorkh5zTbL47pRpo-28" value="广告引擎" style="fillColor=none;strokeColor=#5A6C86;dashed=1;verticalAlign=top;fontStyle=0;fontColor=#5A6C86;container=0;" parent="tRflWldESxPaw9c3D1wa-1" vertex="1">
          <mxGeometry x="370" y="672" width="120" height="120" as="geometry" />
        </mxCell>
        <mxCell id="1RImVorkh5zTbL47pRpo-29" value="" style="outlineConnect=0;fontColor=#232F3E;gradientColor=#F78E04;gradientDirection=north;fillColor=#D05C17;strokeColor=#ffffff;dashed=0;verticalLabelPosition=bottom;verticalAlign=top;align=center;html=1;fontSize=12;fontStyle=0;aspect=fixed;shape=mxgraph.aws4.resourceIcon;resIcon=mxgraph.aws4.eks;container=0;" parent="tRflWldESxPaw9c3D1wa-1" vertex="1">
          <mxGeometry x="395" y="697" width="70" height="70" as="geometry" />
        </mxCell>
        <mxCell id="1RImVorkh5zTbL47pRpo-30" value="导出订单、素材、&lt;br&gt;黑白名单业务数据" style="text;html=1;align=center;verticalAlign=middle;resizable=0;points=[];autosize=1;" parent="tRflWldESxPaw9c3D1wa-1" vertex="1">
          <mxGeometry x="458" y="545" width="110" height="30" as="geometry" />
        </mxCell>
        <mxCell id="1RImVorkh5zTbL47pRpo-31" value="" style="group" parent="tRflWldESxPaw9c3D1wa-1" vertex="1" connectable="0">
          <mxGeometry x="200" y="670" width="120" height="120" as="geometry" />
        </mxCell>
        <mxCell id="1RImVorkh5zTbL47pRpo-32" value="广告数据" style="fillColor=none;strokeColor=#5A6C86;dashed=1;verticalAlign=top;fontStyle=0;fontColor=#5A6C86;labelBackgroundColor=#ffffff;" parent="1RImVorkh5zTbL47pRpo-31" vertex="1">
          <mxGeometry width="120" height="120" as="geometry" />
        </mxCell>
        <mxCell id="1RImVorkh5zTbL47pRpo-33" value="" style="outlineConnect=0;fontColor=#232F3E;gradientColor=#4D72F3;gradientDirection=north;fillColor=#3334B9;strokeColor=#ffffff;dashed=0;verticalLabelPosition=bottom;verticalAlign=top;align=center;html=1;fontSize=12;fontStyle=0;aspect=fixed;shape=mxgraph.aws4.resourceIcon;resIcon=mxgraph.aws4.timestream;labelBackgroundColor=#ffffff;container=0;" parent="1RImVorkh5zTbL47pRpo-31" vertex="1">
          <mxGeometry x="26" y="28" width="70" height="70" as="geometry" />
        </mxCell>
        <mxCell id="1RImVorkh5zTbL47pRpo-34" value="使用sqoop同步&lt;br&gt;订单、创意数据" style="text;html=1;align=center;verticalAlign=middle;resizable=0;points=[];autosize=1;" parent="tRflWldESxPaw9c3D1wa-1" vertex="1">
          <mxGeometry x="300" y="550" width="100" height="30" as="geometry" />
        </mxCell>
        <mxCell id="1RImVorkh5zTbL47pRpo-35" value="" style="outlineConnect=0;fontColor=#232F3E;gradientDirection=north;strokeColor=#ffffff;dashed=0;verticalLabelPosition=bottom;verticalAlign=top;align=center;html=1;fontSize=12;fontStyle=0;aspect=fixed;shape=mxgraph.aws4.resourceIcon;resIcon=mxgraph.aws4.support;labelBackgroundColor=#ffffff;fillColor=#00994D;container=0;" parent="tRflWldESxPaw9c3D1wa-1" vertex="1">
          <mxGeometry x="202" y="472.25" width="46" height="46" as="geometry" />
        </mxCell>
        <mxCell id="1RImVorkh5zTbL47pRpo-36" value="联盟业务服务" style="text;html=1;align=center;verticalAlign=middle;resizable=0;points=[];autosize=1;" parent="tRflWldESxPaw9c3D1wa-1" vertex="1">
          <mxGeometry x="176.87" y="447" width="90" height="20" as="geometry" />
        </mxCell>
        <mxCell id="1RImVorkh5zTbL47pRpo-38" value="公司QOSS对象存储服务" style="text;html=1;align=center;verticalAlign=middle;resizable=0;points=[];autosize=1;" parent="tRflWldESxPaw9c3D1wa-1" vertex="1">
          <mxGeometry x="445" y="610" width="150" height="20" as="geometry" />
        </mxCell>
        <mxCell id="1RImVorkh5zTbL47pRpo-39" value="导出联盟业务数据" style="text;html=1;align=center;verticalAlign=middle;resizable=0;points=[];autosize=1;" parent="tRflWldESxPaw9c3D1wa-1" vertex="1">
          <mxGeometry x="500" y="748" width="110" height="20" as="geometry" />
        </mxCell>
        <mxCell id="1RImVorkh5zTbL47pRpo-40" value="广告引擎" style="fillColor=none;strokeColor=#5A6C86;dashed=1;verticalAlign=top;fontStyle=0;fontColor=#5A6C86;container=0;" parent="tRflWldESxPaw9c3D1wa-1" vertex="1">
          <mxGeometry x="314" y="20" width="100" height="90" as="geometry" />
        </mxCell>
        <mxCell id="1RImVorkh5zTbL47pRpo-41" value="" style="outlineConnect=0;fontColor=#232F3E;gradientColor=#F78E04;gradientDirection=north;fillColor=#D05C17;strokeColor=#ffffff;dashed=0;verticalLabelPosition=bottom;verticalAlign=top;align=center;html=1;fontSize=12;fontStyle=0;aspect=fixed;shape=mxgraph.aws4.resourceIcon;resIcon=mxgraph.aws4.eks;container=0;" parent="tRflWldESxPaw9c3D1wa-1" vertex="1">
          <mxGeometry x="339" y="45" width="55" height="55" as="geometry" />
        </mxCell>
        <mxCell id="1RImVorkh5zTbL47pRpo-42" value="" style="endArrow=classic;html=1;exitX=0.153;exitY=1.037;exitDx=0;exitDy=0;exitPerimeter=0;" parent="tRflWldESxPaw9c3D1wa-1" source="1RImVorkh5zTbL47pRpo-1" edge="1">
          <mxGeometry width="50" height="50" relative="1" as="geometry">
            <mxPoint x="59" y="511" as="sourcePoint" />
            <mxPoint x="236" y="670" as="targetPoint" />
          </mxGeometry>
        </mxCell>
        <mxCell id="1RImVorkh5zTbL47pRpo-43" value="获取奇胜策略数据，&lt;br&gt;获取ADX创意生产、过滤数据，&lt;br&gt;获取奇麟广告诊断数据" style="text;html=1;align=center;verticalAlign=middle;resizable=0;points=[];autosize=1;" parent="tRflWldESxPaw9c3D1wa-1" vertex="1">
          <mxGeometry x="255" y="112" width="180" height="50" as="geometry" />
        </mxCell>
        <mxCell id="1RImVorkh5zTbL47pRpo-46" value="奇甄获取广告主、素材生产、&lt;br&gt;用户登录数据" style="text;html=1;align=center;verticalAlign=middle;resizable=0;points=[];autosize=1;" parent="tRflWldESxPaw9c3D1wa-1" vertex="1">
          <mxGeometry x="568" y="120" width="170" height="30" as="geometry" />
        </mxCell>
        <mxCell id="1RImVorkh5zTbL47pRpo-47" value="" style="outlineConnect=0;fontColor=#232F3E;gradientDirection=north;strokeColor=#ffffff;dashed=0;verticalLabelPosition=bottom;verticalAlign=top;align=center;html=1;fontSize=12;fontStyle=0;aspect=fixed;shape=mxgraph.aws4.resourceIcon;resIcon=mxgraph.aws4.support;labelBackgroundColor=#ffffff;fillColor=#00994D;container=0;" parent="tRflWldESxPaw9c3D1wa-1" vertex="1">
          <mxGeometry x="467" y="45" width="55" height="55" as="geometry" />
        </mxCell>
        <mxCell id="1RImVorkh5zTbL47pRpo-49" value="获取财务&lt;br&gt;发票数据" style="text;html=1;align=center;verticalAlign=middle;resizable=0;points=[];autosize=1;" parent="tRflWldESxPaw9c3D1wa-1" vertex="1">
          <mxGeometry x="499" y="112" width="60" height="30" as="geometry" />
        </mxCell>
        <mxCell id="1RImVorkh5zTbL47pRpo-50" value="" style="fillColor=none;strokeColor=#5A6C86;dashed=1;verticalAlign=top;fontStyle=0;fontColor=#5A6C86;labelBackgroundColor=#ffffff;" parent="tRflWldESxPaw9c3D1wa-1" vertex="1">
          <mxGeometry x="150" y="289.5" width="100" height="85" as="geometry" />
        </mxCell>
        <mxCell id="1RImVorkh5zTbL47pRpo-51" value="配置中心" style="text;html=1;align=center;verticalAlign=middle;resizable=0;points=[];autosize=1;" parent="tRflWldESxPaw9c3D1wa-1" vertex="1">
          <mxGeometry x="170" y="298.25" width="60" height="20" as="geometry" />
        </mxCell>
        <mxCell id="1RImVorkh5zTbL47pRpo-52" value="" style="fillColor=none;strokeColor=#5A6C86;dashed=1;verticalAlign=top;fontStyle=0;fontColor=#5A6C86;labelBackgroundColor=#ffffff;" parent="tRflWldESxPaw9c3D1wa-1" vertex="1">
          <mxGeometry x="255" y="289.5" width="95" height="85" as="geometry" />
        </mxCell>
        <mxCell id="1RImVorkh5zTbL47pRpo-53" value="&lt;span style=&quot;color: rgb(58 , 58 , 58) ; font-family: , sans-serif , &amp;#34;helvetica neue&amp;#34; , &amp;#34;helvetica&amp;#34; , &amp;#34;arial&amp;#34; , &amp;#34;hiragino sans gb&amp;#34; , &amp;#34;microsoft yahei&amp;#34; , &amp;#34;wenquanyi micro hei&amp;#34; , sans-serif ; font-size: 14px ; text-align: left ; background-color: rgb(255 , 255 , 255)&quot;&gt;eureka&lt;/span&gt;" style="text;html=1;align=center;verticalAlign=middle;resizable=0;points=[];autosize=1;" parent="tRflWldESxPaw9c3D1wa-1" vertex="1">
          <mxGeometry x="273.82" y="298.25" width="60" height="20" as="geometry" />
        </mxCell>
        <mxCell id="1RImVorkh5zTbL47pRpo-54" value="服务发现" style="text;html=1;align=center;verticalAlign=middle;resizable=0;points=[];autosize=1;" parent="tRflWldESxPaw9c3D1wa-1" vertex="1">
          <mxGeometry x="240" y="393" width="60" height="20" as="geometry" />
        </mxCell>
        <mxCell id="1RImVorkh5zTbL47pRpo-55" value="" style="endArrow=classic;html=1;exitX=1;exitY=1;exitDx=0;exitDy=0;entryX=0.075;entryY=-0.1;entryDx=0;entryDy=0;entryPerimeter=0;" parent="tRflWldESxPaw9c3D1wa-1" source="1RImVorkh5zTbL47pRpo-40" target="1RImVorkh5zTbL47pRpo-20" edge="1">
          <mxGeometry width="50" height="50" relative="1" as="geometry">
            <mxPoint x="209" y="85" as="sourcePoint" />
            <mxPoint x="330" y="213" as="targetPoint" />
          </mxGeometry>
        </mxCell>
        <mxCell id="1RImVorkh5zTbL47pRpo-58" value="" style="endArrow=classic;html=1;entryX=0.5;entryY=-0.069;entryDx=0;entryDy=0;entryPerimeter=0;" parent="tRflWldESxPaw9c3D1wa-1" target="OBYdjAQwyOih0-I9UUXj-0" edge="1">
          <mxGeometry width="50" height="50" relative="1" as="geometry">
            <mxPoint x="399.5" y="202" as="sourcePoint" />
            <mxPoint x="399.5" y="242" as="targetPoint" />
          </mxGeometry>
        </mxCell>
        <mxCell id="1RImVorkh5zTbL47pRpo-59" value="" style="endArrow=classic;html=1;exitX=0.238;exitY=1.15;exitDx=0;exitDy=0;exitPerimeter=0;" parent="tRflWldESxPaw9c3D1wa-1" edge="1">
          <mxGeometry width="50" height="50" relative="1" as="geometry">
            <mxPoint x="493.03999999999996" y="209" as="sourcePoint" />
            <mxPoint x="493" y="314" as="targetPoint" />
          </mxGeometry>
        </mxCell>
        <mxCell id="1RImVorkh5zTbL47pRpo-60" value="" style="outlineConnect=0;fontColor=#232F3E;gradientColor=#4D72F3;gradientDirection=north;fillColor=#3334B9;strokeColor=#ffffff;dashed=0;verticalLabelPosition=bottom;verticalAlign=top;align=center;html=1;fontSize=12;fontStyle=0;aspect=fixed;shape=mxgraph.aws4.resourceIcon;resIcon=mxgraph.aws4.database;" parent="tRflWldESxPaw9c3D1wa-1" vertex="1">
          <mxGeometry x="771.75" y="456" width="78.5" height="78.5" as="geometry" />
        </mxCell>
        <mxCell id="1RImVorkh5zTbL47pRpo-61" value="" style="outlineConnect=0;fontColor=#232F3E;gradientColor=none;fillColor=#116D5B;strokeColor=none;dashed=0;verticalLabelPosition=bottom;verticalAlign=top;align=center;html=1;fontSize=12;fontStyle=0;aspect=fixed;shape=mxgraph.aws4.agent2;labelBackgroundColor=#ffffff;" parent="tRflWldESxPaw9c3D1wa-1" vertex="1">
          <mxGeometry x="781" y="351" width="58" height="58" as="geometry" />
        </mxCell>
        <mxCell id="1RImVorkh5zTbL47pRpo-62" value="Redis" style="text;html=1;align=center;verticalAlign=middle;resizable=0;points=[];autosize=1;" parent="tRflWldESxPaw9c3D1wa-1" vertex="1">
          <mxGeometry x="786" y="550" width="50" height="20" as="geometry" />
        </mxCell>
        <mxCell id="1RImVorkh5zTbL47pRpo-63" value="" style="outlineConnect=0;fontColor=#232F3E;gradientColor=#4D72F3;gradientDirection=north;fillColor=#3334B9;strokeColor=#ffffff;dashed=0;verticalLabelPosition=bottom;verticalAlign=top;align=center;html=1;fontSize=12;fontStyle=0;aspect=fixed;shape=mxgraph.aws4.resourceIcon;resIcon=mxgraph.aws4.database;" parent="tRflWldESxPaw9c3D1wa-1" vertex="1">
          <mxGeometry x="771.75" y="579" width="78.5" height="78.5" as="geometry" />
        </mxCell>
        <mxCell id="1RImVorkh5zTbL47pRpo-64" value="" style="endArrow=classic;html=1;" parent="tRflWldESxPaw9c3D1wa-1" edge="1">
          <mxGeometry width="50" height="50" relative="1" as="geometry">
            <mxPoint x="493" y="390" as="sourcePoint" />
            <mxPoint x="493" y="430" as="targetPoint" />
          </mxGeometry>
        </mxCell>
        <mxCell id="1RImVorkh5zTbL47pRpo-65" value="" style="endArrow=classic;html=1;" parent="tRflWldESxPaw9c3D1wa-1" edge="1">
          <mxGeometry width="50" height="50" relative="1" as="geometry">
            <mxPoint x="303" y="430" as="sourcePoint" />
            <mxPoint x="303" y="377" as="targetPoint" />
          </mxGeometry>
        </mxCell>
        <mxCell id="1RImVorkh5zTbL47pRpo-66" value="" style="endArrow=classic;html=1;" parent="tRflWldESxPaw9c3D1wa-1" edge="1">
          <mxGeometry width="50" height="50" relative="1" as="geometry">
            <mxPoint x="205" y="430" as="sourcePoint" />
            <mxPoint x="205" y="377" as="targetPoint" />
          </mxGeometry>
        </mxCell>
        <mxCell id="1RImVorkh5zTbL47pRpo-70" value="" style="edgeStyle=orthogonalEdgeStyle;shape=flexArrow;rounded=1;orthogonalLoop=1;jettySize=auto;html=1;width=5.333333333333333;endSize=3.5533333333333332;endWidth=9.777777777777779;exitX=0.25;exitY=1;exitDx=0;exitDy=0;" parent="tRflWldESxPaw9c3D1wa-1" edge="1">
          <mxGeometry relative="1" as="geometry">
            <mxPoint x="299.5" y="540" as="sourcePoint" />
            <mxPoint x="300" y="670" as="targetPoint" />
            <Array as="points">
              <mxPoint x="300" y="640" />
              <mxPoint x="300" y="640" />
            </Array>
          </mxGeometry>
        </mxCell>
        <mxCell id="1RImVorkh5zTbL47pRpo-71" value="使用datamixer&lt;br&gt;获取投放数据" style="text;html=1;align=center;verticalAlign=middle;resizable=0;points=[];autosize=1;" parent="tRflWldESxPaw9c3D1wa-1" vertex="1">
          <mxGeometry x="150" y="550" width="90" height="30" as="geometry" />
        </mxCell>
        <mxCell id="1RImVorkh5zTbL47pRpo-72" value="" style="edgeStyle=orthogonalEdgeStyle;shape=flexArrow;rounded=1;orthogonalLoop=1;jettySize=auto;html=1;width=5.333333333333333;endSize=3.5533333333333332;endWidth=9.777777777777779;entryX=0;entryY=0.5;entryDx=0;entryDy=0;exitX=0.941;exitY=-0.023;exitDx=0;exitDy=0;exitPerimeter=0;" parent="tRflWldESxPaw9c3D1wa-1" edge="1">
          <mxGeometry relative="1" as="geometry">
            <mxPoint x="568.1399999999994" y="432.0100000000002" as="sourcePoint" />
            <mxPoint x="736" y="194" as="targetPoint" />
            <Array as="points">
              <mxPoint x="568" y="194" />
            </Array>
          </mxGeometry>
        </mxCell>
        <mxCell id="1RImVorkh5zTbL47pRpo-73" value="" style="edgeStyle=orthogonalEdgeStyle;shape=flexArrow;rounded=1;orthogonalLoop=1;jettySize=auto;html=1;width=5.333333333333333;endSize=3.5533333333333332;endWidth=9.777777777777779;" parent="tRflWldESxPaw9c3D1wa-1" edge="1">
          <mxGeometry relative="1" as="geometry">
            <mxPoint x="732" y="771" as="sourcePoint" />
            <mxPoint x="492" y="771" as="targetPoint" />
            <Array as="points">
              <mxPoint x="682" y="771" />
            </Array>
          </mxGeometry>
        </mxCell>
        <mxCell id="1RImVorkh5zTbL47pRpo-74" value="" style="endArrow=classic;html=1;entryX=-0.02;entryY=0.659;entryDx=0;entryDy=0;entryPerimeter=0;exitX=1;exitY=1;exitDx=0;exitDy=0;" parent="tRflWldESxPaw9c3D1wa-1" source="1RImVorkh5zTbL47pRpo-1" target="1RImVorkh5zTbL47pRpo-14" edge="1">
          <mxGeometry width="50" height="50" relative="1" as="geometry">
            <mxPoint x="590" y="631" as="sourcePoint" />
            <mxPoint x="629.5" y="624.0500000000002" as="targetPoint" />
            <Array as="points">
              <mxPoint x="600" y="631" />
            </Array>
          </mxGeometry>
        </mxCell>
        <mxCell id="1RImVorkh5zTbL47pRpo-75" value="用户会话、并发锁" style="text;html=1;align=center;verticalAlign=middle;resizable=0;points=[];autosize=1;" parent="tRflWldESxPaw9c3D1wa-1" vertex="1">
          <mxGeometry x="610" y="610" width="110" height="20" as="geometry" />
        </mxCell>
        <mxCell id="1RImVorkh5zTbL47pRpo-76" value="" style="endArrow=classic;html=1;" parent="tRflWldESxPaw9c3D1wa-1" edge="1">
          <mxGeometry width="50" height="50" relative="1" as="geometry">
            <mxPoint x="601" y="499" as="sourcePoint" />
            <mxPoint x="731" y="499" as="targetPoint" />
            <Array as="points" />
          </mxGeometry>
        </mxCell>
        <mxCell id="1RImVorkh5zTbL47pRpo-77" value="" style="endArrow=classic;html=1;exitX=1;exitY=0;exitDx=0;exitDy=0;entryX=0;entryY=0.156;entryDx=0;entryDy=0;entryPerimeter=0;" parent="tRflWldESxPaw9c3D1wa-1" source="1RImVorkh5zTbL47pRpo-1" target="1RImVorkh5zTbL47pRpo-14" edge="1">
          <mxGeometry width="50" height="50" relative="1" as="geometry">
            <mxPoint x="606" y="367.25" as="sourcePoint" />
            <mxPoint x="736" y="367.25" as="targetPoint" />
            <Array as="points">
              <mxPoint x="600" y="382" />
            </Array>
          </mxGeometry>
        </mxCell>
        <mxCell id="1RImVorkh5zTbL47pRpo-78" value="异步化重操作" style="text;html=1;align=center;verticalAlign=middle;resizable=0;points=[];autosize=1;" parent="tRflWldESxPaw9c3D1wa-1" vertex="1">
          <mxGeometry x="617" y="359" width="90" height="20" as="geometry" />
        </mxCell>
        <mxCell id="1RImVorkh5zTbL47pRpo-79" value="" style="endArrow=classic;html=1;entryX=-0.02;entryY=0.659;entryDx=0;entryDy=0;entryPerimeter=0;" parent="tRflWldESxPaw9c3D1wa-1" edge="1">
          <mxGeometry width="50" height="50" relative="1" as="geometry">
            <mxPoint x="600" y="622" as="sourcePoint" />
            <mxPoint x="733" y="723.5050000000001" as="targetPoint" />
            <Array as="points">
              <mxPoint x="600" y="723.3" />
            </Array>
          </mxGeometry>
        </mxCell>
        <mxCell id="1RImVorkh5zTbL47pRpo-80" value="投放、CRM、审核、&lt;br&gt;财务等业务数据" style="text;html=1;align=center;verticalAlign=middle;resizable=0;points=[];autosize=1;" parent="tRflWldESxPaw9c3D1wa-1" vertex="1">
          <mxGeometry x="605" y="692" width="130" height="30" as="geometry" />
        </mxCell>
        <mxCell id="1RImVorkh5zTbL47pRpo-81" value="" style="outlineConnect=0;fontColor=#232F3E;gradientColor=#4D72F3;gradientDirection=north;fillColor=#3334B9;strokeColor=#ffffff;dashed=0;verticalLabelPosition=bottom;verticalAlign=top;align=center;html=1;fontSize=12;fontStyle=0;aspect=fixed;shape=mxgraph.aws4.resourceIcon;resIcon=mxgraph.aws4.database;" parent="tRflWldESxPaw9c3D1wa-1" vertex="1">
          <mxGeometry x="770.75" y="702.75" width="78.5" height="78.5" as="geometry" />
        </mxCell>
        <mxCell id="1RImVorkh5zTbL47pRpo-82" value="" style="edgeStyle=orthogonalEdgeStyle;shape=flexArrow;rounded=1;orthogonalLoop=1;jettySize=auto;html=1;width=5.333333333333333;endSize=3.5533333333333332;endWidth=9.777777777777779;" parent="tRflWldESxPaw9c3D1wa-1" edge="1">
          <mxGeometry relative="1" as="geometry">
            <mxPoint x="429.5799999999999" y="540" as="sourcePoint" />
            <mxPoint x="429.5799999999999" y="572" as="targetPoint" />
            <Array as="points">
              <mxPoint x="429.58" y="550" />
              <mxPoint x="429.58" y="550" />
            </Array>
          </mxGeometry>
        </mxCell>
        <mxCell id="1RImVorkh5zTbL47pRpo-84" value="" style="edgeStyle=orthogonalEdgeStyle;shape=flexArrow;rounded=1;orthogonalLoop=1;jettySize=auto;html=1;width=5.333333333333333;endSize=3.5533333333333332;endWidth=9.777777777777779;" parent="tRflWldESxPaw9c3D1wa-1" edge="1">
          <mxGeometry relative="1" as="geometry">
            <mxPoint x="429.5799999999999" y="628" as="sourcePoint" />
            <mxPoint x="429.5799999999999" y="660" as="targetPoint" />
            <Array as="points">
              <mxPoint x="429.58" y="638" />
              <mxPoint x="429.58" y="638" />
            </Array>
          </mxGeometry>
        </mxCell>
        <mxCell id="1RImVorkh5zTbL47pRpo-85" value="" style="outlineConnect=0;fontColor=#232F3E;gradientColor=#F34482;gradientDirection=north;fillColor=#BC1356;strokeColor=#ffffff;dashed=0;verticalLabelPosition=bottom;verticalAlign=top;align=center;html=1;fontSize=12;fontStyle=0;aspect=fixed;shape=mxgraph.aws4.resourceIcon;resIcon=mxgraph.aws4.config;" parent="tRflWldESxPaw9c3D1wa-1" vertex="1">
          <mxGeometry x="176.87" y="318.25" width="46.25" height="46.25" as="geometry" />
        </mxCell>
        <mxCell id="1RImVorkh5zTbL47pRpo-86" value="" style="outlineConnect=0;fontColor=#232F3E;gradientColor=#F34482;gradientDirection=north;fillColor=#BC1356;strokeColor=#ffffff;dashed=0;verticalLabelPosition=bottom;verticalAlign=top;align=center;html=1;fontSize=12;fontStyle=0;aspect=fixed;shape=mxgraph.aws4.resourceIcon;resIcon=mxgraph.aws4.service_catalog;" parent="tRflWldESxPaw9c3D1wa-1" vertex="1">
          <mxGeometry x="281.38" y="319.63" width="44.87" height="44.87" as="geometry" />
        </mxCell>
        <mxCell id="1RImVorkh5zTbL47pRpo-87" value="" style="outlineConnect=0;fontColor=#232F3E;gradientColor=#945DF2;gradientDirection=north;fillColor=#5A30B5;strokeColor=#ffffff;dashed=0;verticalLabelPosition=bottom;verticalAlign=top;align=center;html=1;fontSize=12;fontStyle=0;aspect=fixed;shape=mxgraph.aws4.resourceIcon;resIcon=mxgraph.aws4.elasticsearch_service;" parent="tRflWldESxPaw9c3D1wa-1" vertex="1">
          <mxGeometry x="772" y="160" width="78" height="78" as="geometry" />
        </mxCell>
        <mxCell id="2YD7YN2L258nmcMuLitv-4" value="" style="endArrow=classic;html=1;exitX=0;exitY=1;exitDx=0;exitDy=0;" parent="tRflWldESxPaw9c3D1wa-1" source="1RImVorkh5zTbL47pRpo-48" edge="1">
          <mxGeometry width="50" height="50" relative="1" as="geometry">
            <mxPoint x="252" y="89" as="sourcePoint" />
            <mxPoint x="520" y="180" as="targetPoint" />
          </mxGeometry>
        </mxCell>
        <mxCell id="2YD7YN2L258nmcMuLitv-5" value="" style="endArrow=classic;html=1;entryX=0.325;entryY=-0.2;entryDx=0;entryDy=0;entryPerimeter=0;" parent="tRflWldESxPaw9c3D1wa-1" target="1RImVorkh5zTbL47pRpo-20" edge="1">
          <mxGeometry width="50" height="50" relative="1" as="geometry">
            <mxPoint x="500" y="109" as="sourcePoint" />
            <mxPoint x="490" y="190" as="targetPoint" />
          </mxGeometry>
        </mxCell>
        <mxCell id="EJWM70d6OD4Ju-OHA0dS-0" value="" style="outlineConnect=0;fontColor=#232F3E;gradientColor=#F54749;gradientDirection=north;fillColor=#C7131F;strokeColor=#ffffff;dashed=0;verticalLabelPosition=bottom;verticalAlign=top;align=center;html=1;fontSize=12;fontStyle=0;aspect=fixed;shape=mxgraph.aws4.resourceIcon;resIcon=mxgraph.aws4.mobile;container=0;" parent="tRflWldESxPaw9c3D1wa-1" vertex="1">
          <mxGeometry x="600" y="45" width="50" height="50" as="geometry" />
        </mxCell>
        <mxCell id="ZbXWVpZAlC4G5KoLomq1-0" value="" style="outlineConnect=0;dashed=0;verticalLabelPosition=bottom;verticalAlign=top;align=center;html=1;shape=mxgraph.aws3.classic_load_balancer;fillColor=#F58534;gradientColor=none;" parent="tRflWldESxPaw9c3D1wa-1" vertex="1">
          <mxGeometry x="370" y="254.38" width="60" height="58" as="geometry" />
        </mxCell>
        <mxCell id="OBYdjAQwyOih0-I9UUXj-0" value="QLB" style="text;html=1;align=center;verticalAlign=middle;resizable=0;points=[];autosize=1;" parent="tRflWldESxPaw9c3D1wa-1" vertex="1">
          <mxGeometry x="380" y="234.38" width="40" height="20" as="geometry" />
        </mxCell>
        <mxCell id="OBYdjAQwyOih0-I9UUXj-1" value="" style="outlineConnect=0;fontColor=#232F3E;gradientColor=#F54749;gradientDirection=north;fillColor=#C7131F;strokeColor=#ffffff;dashed=0;verticalLabelPosition=bottom;verticalAlign=top;align=center;html=1;fontSize=12;fontStyle=0;aspect=fixed;shape=mxgraph.aws4.resourceIcon;resIcon=mxgraph.aws4.appsync;" parent="tRflWldESxPaw9c3D1wa-1" vertex="1">
          <mxGeometry x="376" y="334" width="54" height="54" as="geometry" />
        </mxCell>
        <mxCell id="OBYdjAQwyOih0-I9UUXj-2" value="网关" style="text;html=1;align=center;verticalAlign=middle;resizable=0;points=[];autosize=1;" parent="tRflWldESxPaw9c3D1wa-1" vertex="1">
          <mxGeometry x="381" y="314" width="40" height="20" as="geometry" />
        </mxCell>
        <mxCell id="OBYdjAQwyOih0-I9UUXj-3" value="" style="endArrow=classic;html=1;" parent="tRflWldESxPaw9c3D1wa-1" edge="1">
          <mxGeometry width="50" height="50" relative="1" as="geometry">
            <mxPoint x="402.5" y="390" as="sourcePoint" />
            <mxPoint x="402.5" y="430" as="targetPoint" />
          </mxGeometry>
        </mxCell>
      </root>
    </mxGraphModel>
  </diagram>
</mxfile>
